<?xml version="1.0" encoding="UTF-8"?><svg id="Layer_1" xmlns="http://www.w3.org/2000/svg" xmlns:xlink="http://www.w3.org/1999/xlink" viewBox="0 0 640 452"><defs><style>.cls-1,.cls-2,.cls-3,.cls-4{fill:none;}.cls-2,.cls-5,.cls-6,.cls-7,.cls-8,.cls-9,.cls-10,.cls-11,.cls-12,.cls-13,.cls-14,.cls-15,.cls-3,.cls-4,.cls-16,.cls-17,.cls-18,.cls-19,.cls-20{stroke:#010101;}.cls-2,.cls-16,.cls-17,.cls-18,.cls-19,.cls-20{stroke-linejoin:round;}.cls-21{clip-path:url(#clippath);}.cls-22,.cls-6,.cls-13,.cls-20,.cls-23{fill:#f2f2f2;}.cls-24{fill:#f2f1ef;}.cls-25,.cls-8,.cls-9,.cls-10,.cls-16{fill:#010101;}.cls-26,.cls-7,.cls-11,.cls-18{fill:#fff;}.cls-27,.cls-12,.cls-19{fill:#e2e2de;}.cls-28,.cls-17{fill:#a1a09e;}.cls-5{stroke-width:.75px;}.cls-5,.cls-14,.cls-15{fill:#f2f2f0;}.cls-6,.cls-7{fill-rule:evenodd;}.cls-6,.cls-7,.cls-8,.cls-9,.cls-10,.cls-11,.cls-12,.cls-13,.cls-14,.cls-3{stroke-miterlimit:10;}.cls-8{stroke-width:.25px;}.cls-29{clip-path:url(#clippath-1);}.cls-9{stroke-width:.5px;}.cls-23{opacity:.65;}</style><clipPath id="clippath"><rect class="cls-1" x="1.35" width="638.65" height="452"/></clipPath><clipPath id="clippath-1"><path vector-effect="non-scaling-stroke" class="cls-1" d="m569.58,317.78c0,50.63-10.97,91.68-24.51,91.68v18.59h-136.05v-210.41h136.05v8.45c13.54,0,24.51,41.05,24.51,91.68Z"/></clipPath></defs><rect class="cls-24" x="0" width="640" height="452"/><g class="cls-21"><path vector-effect="non-scaling-stroke" class="cls-3" d="m184.68,241.3H-43.47"/><path vector-effect="non-scaling-stroke" class="cls-3" d="m184.68,250.6H-43.47"/><path vector-effect="non-scaling-stroke" class="cls-10" d="m52.46,61.23c.43-1.58-2.94-4.79-4.72-5.64-1.45-.69-4.35-1.94-8.09-1.71-1.52.09-4.28,1.28-6.31,2.7-.7.49-3.32,3.07-3.55,5.67-.15,1.73.16,1.75-1,3.37-1.08,1.51-2.75,1.7-4.42,2.07-2.43.55-2.69,2.62-2.69,4.84,0,.76-.09,1.72-1.06,1.79-.47.03-.92-.16-1.37-.31-1.13-.36-2.38-.41-3.48.02-.96.38-1.73,1.15-2.13,2.11-.46,1.11.15,2.24-.22,3.34-.35,1.05-1.43,1.83-2.46,2.12-1.4.4-2.89.17-4.34-.04s-2.95-.4-4.33.08c-3.61,1.27-7.1,6.61-6.18,10.36.56,2.26,2,3.66,2.52,3.93.75.38,3.14.45,3.19,1.67.02.51-.51.83-.85,1.21-1.05,1.17-.11,2.49.72,3.42,1.55,1.71,4.55,3.31,6.27.81.19-.27.34-.58.58-.8s.64-.34.91-.15c.14.1.22.25.3.4.32.65.42,1.52.87,2.1,1.04,1.37,2.65,1.76,3.5,1.97,0,0,3.14.77,6.68-1.15,4.75-2.58,7.07-8.72,10.02-19.7,3.01-11.23,5.95-15.02,11.84-18.02,5.81-2.96,9.28-4.61,9.78-6.45Z"/><g id="Head"><path vector-effect="non-scaling-stroke" id="_8E5D3C" class="cls-11" d="m42.91,79.5l1.09-5.84s5.14,4.53,7.96,2.63c1.98-1.33,1.65-3.98,1.49-7.18l.25.11c.65.28,1.33-.35,1.09-1.02-.39-1.08-.92-2.2-1.32-2.99.01-.15.03-.3.05-.45.6-5.04-3.89-7.95-6.3-8.89-2.41-.94-5.77-2.43-8.87-.11-3.15,2.36-.5,7.66-2.14,14.8-.34,1.47-1.2,3.55-3.43,6.2l10.14,2.73Z"/><path vector-effect="non-scaling-stroke" id="_000000" class="cls-10" d="m43.02,79.67l-10.48-2.82.13-.16c1.82-2.16,2.96-4.23,3.4-6.15.7-3.07.61-5.75.53-8.12-.1-3.01-.19-5.39,1.66-6.76,3.01-2.26,6.28-.97,8.66-.04l.34.13c.6.23,2.68,1.13,4.33,2.94,1.63,1.78,2.33,3.83,2.06,6.09-.02.14-.03.27-.04.41.39.76.93,1.89,1.31,2.97.13.36.04.75-.24,1.01-.28.26-.67.33-1.02.18l-.06-.02c0,.18.02.35.03.53.16,2.84.3,5.29-1.58,6.55-1.2.8-2.99.6-5.17-.6-1.28-.7-2.36-1.56-2.77-1.89l-1.08,5.76Zm-10.01-2.97l9.81,2.64,1.11-5.93.17.15c.05.04,5.1,4.44,7.8,2.62,1.76-1.18,1.63-3.45,1.47-6.32-.01-.24-.03-.49-.04-.74v-.21s.44.2.44.2c.25.11.54.06.74-.13.2-.19.27-.47.18-.73-.39-1.09-.93-2.22-1.32-2.97l-.02-.03v-.04c.02-.15.03-.3.05-.45.26-2.18-.41-4.15-1.99-5.88-1.61-1.76-3.64-2.64-4.23-2.87l-.34-.13c-2.32-.91-5.51-2.17-8.41,0-1.73,1.3-1.66,3.5-1.55,6.54.08,2.26.17,5.08-.54,8.18-.44,1.91-1.56,3.96-3.33,6.1Z"/></g><path vector-effect="non-scaling-stroke" id="_000000-2" class="cls-10" d="m53.51,70.98c-2.57,0-3.09-2.16-3.1-2.18l.26-.06c.02.08.48,1.98,2.84,1.98.01,0,.02,0,.03,0v.26s-.02,0-.03,0Z"/><path vector-effect="non-scaling-stroke" id="_000000-3" class="cls-10" d="m52.41,59.73c-.08-.11-.19-.28-.34-.47-.18-.23-1.03-1.31-2.57-2.33-.53-.35-1.28-.79-2.23-1.17l-.34-.13c-2.38-.94-5.65-2.22-8.66.04-1.84,1.38-1.76,3.76-1.66,6.77.06,1.64.12,3.5-.1,5.54v.13s.12.01.12.01c.3.03.58.05.86.05,5.93,0,8.72-6.78,9.08-7.71,3.4.6,5.77-.52,5.79-.53l.13-.07-.08-.12Z"/><g id="Ear"><path vector-effect="non-scaling-stroke" id="_8E5D3C-2" class="cls-24" d="m46.05,63.22s-1.89-1.96-3.6-.68c-2.17,1.62-.1,3.99.99,4.25l2.61-3.56Z"/><path vector-effect="non-scaling-stroke" id="_000000-4" class="cls-10" d="m43.19,66.8c-.67-.19-1.58-1.18-1.8-2.22-.12-.58-.08-1.41.79-2.12,1.54-1.26,3.33.73,3.34.75l-.2.17c-.07-.07-1.63-1.82-2.98-.72-.77.62-.81,1.36-.7,1.86.21,1.01,1.09,1.87,1.61,2.02l-.07.25Z"/></g><g id="Head-2"><g id="Head-3"><path vector-effect="non-scaling-stroke" id="_8E5D3C-3" class="cls-12" d="m118.6,82.32l-1.15-6.15s-5.41,4.76-8.38,2.77c-2.08-1.4-1.74-4.18-1.56-7.55l-.27.12c-.69.3-1.4-.37-1.15-1.07.41-1.14.97-2.31,1.39-3.14-.01-.16-.03-.31-.05-.47-.63-5.31,4.1-8.37,6.63-9.35,2.53-.99,6.08-2.56,9.34-.12,3.32,2.48.53,8.06,2.25,15.58.36,1.55,1.26,3.74,3.61,6.53l-10.67,2.87Z"/><path vector-effect="non-scaling-stroke" id="_000000-5" class="cls-10" d="m106.23,71.45c.3.27.71.35,1.08.18l.06-.02c-.01.19-.02.37-.03.55-.17,2.99-.31,5.56,1.67,6.89,1.06.71,2.57.67,4.4-.12.34-.14.69-.31,1.05-.51,1.35-.74,2.49-1.64,2.91-1.99l.36,1.91.05.28.43,2.29.15.8.03.17.03.17.08.43,1.79-.48.44-.12.44-.12,8.37-2.25-.14-.17c-.1-.11-.19-.23-.29-.35-.05-.06-.09-.12-.14-.18-.05-.06-.09-.12-.14-.18-.02-.02-.04-.05-.06-.07-1.55-1.99-2.54-3.9-2.95-5.69-.2-.89-.35-1.75-.44-2.57-.25-2.19-.18-4.17-.12-5.97.11-3.16.19-5.67-1.75-7.12-3.18-2.37-6.61-1.02-9.11-.04l-.36.14s-.05.02-.08.03c-.03.01-.06.02-.09.04-.16.06-.34.14-.56.25-.07.03-.14.06-.21.1-.02,0-.03.01-.05.02-.09.04-.18.09-.27.14h0c-.27.15-.58.32-.9.52-.01,0-.02.01-.03.02-.22.14-.44.29-.67.46-.11.08-.22.17-.34.26-.11.09-.23.18-.34.28-.21.18-.42.37-.62.57h0s-.09.1-.14.15c-.07.07-.14.14-.2.22-.02.01-.03.03-.04.04-.05.06-.1.11-.15.17-.2.22-.38.45-.54.68-.09.12-.18.25-.26.37-.86,1.31-1.28,2.73-1.27,4.25,0,.09,0,.19.01.28,0,.22.02.44.05.66.02.14.03.29.05.43-.13.25-.27.54-.42.85-.08.16-.15.32-.23.49-.26.57-.52,1.18-.74,1.79-.13.38-.03.79.26,1.06Zm.19-.2c-.21-.2-.28-.49-.19-.77.34-.95.8-1.94,1.18-2.7.08-.15.14-.29.21-.42l.02-.03v-.04c-.02-.16-.03-.31-.05-.47-.03-.22-.05-.45-.05-.67,0-.07,0-.13,0-.2,0-.03,0-.06,0-.08,0-1.46.42-2.83,1.25-4.09.05-.08.1-.15.16-.23,0,0,0-.01.01-.02.22-.31.46-.61.73-.9,1.7-1.86,3.83-2.78,4.45-3.02l.36-.14c2.44-.96,5.79-2.28,8.85,0,1.82,1.37,1.74,3.68,1.63,6.89-.06,1.73-.13,3.76.13,6,.09.84.24,1.71.44,2.61.41,1.77,1.37,3.65,2.86,5.61.04.06.08.11.13.17,0,0,0,0,0,.01.04.05.08.11.12.16.13.16.25.31.38.47l-3.37.91-2.72.73-1.01.27-.44.12-.44.12-2.34.63-.06-.34-.03-.17-.03-.17-.09-.49-.44-2.35-.05-.28-.46-2.44-.18.16s-2.04,1.77-4.24,2.68c-1.39.57-2.86.82-3.97.08-1.61-1.08-1.72-3.01-1.61-5.48,0-.09,0-.18.01-.28.02-.29.03-.59.05-.89.01-.25.03-.52.04-.78v-.22s-.46.2-.46.2c-.27.12-.57.06-.78-.13Z"/></g><path vector-effect="non-scaling-stroke" id="_000000-6" class="cls-10" d="m107.45,73.35c2.7,0,3.25-2.27,3.26-2.3l-.27-.06c-.02.09-.51,2.08-2.99,2.08-.01,0-.02,0-.03,0v.28s.02,0,.03,0Z"/><path vector-effect="non-scaling-stroke" class="cls-10" d="m108.53,61.64l.13.06h.02s.04.03.11.05c.01,0,.02.01.03.02.58.24,2.86,1.04,5.95.49.12.31.49,1.22,1.13,2.33.05.08.1.17.15.25.02.03.03.06.05.09.03.04.05.08.08.12.03.04.05.08.08.12.65,1.04,1.53,2.17,2.64,3.11.03.03.07.06.11.09.03.03.07.06.11.09,1.38,1.11,3.11,1.92,5.21,1.92.25,0,.51-.01.77-.04.05,0,.09,0,.14-.01l.14-.02h0l-.02-.14c-.24-2.15-.17-4.11-.11-5.83.11-3.16.19-5.67-1.75-7.12-3.18-2.37-6.61-1.02-9.11-.04l-.36.14s-.05.02-.08.03c-.03.01-.06.02-.09.04-.16.06-.34.14-.56.25-.07.03-.14.06-.21.1-.02,0-.03.01-.05.02-.09.04-.18.09-.27.14h0c-.28.15-.58.32-.9.52-.01,0-.02.01-.03.02-.22.14-.44.29-.67.46-.11.08-.22.17-.34.26-.11.09-.23.18-.34.28-.21.18-.42.37-.62.57h0s-.09.1-.14.15c-.07.07-.14.14-.2.22-.06.07-.13.14-.19.21-.19.21-.36.44-.54.68-.06.08-.11.16-.17.24l-.09.13Z"/><polygon id="_000000-7" class="cls-10" points="105.64 63.79 105.87 65.97 115.87 64.47 115.91 64.74 105.9 66.25 106.14 68.61 105.86 68.63 105.37 63.82 105.64 63.79"/></g><path vector-effect="non-scaling-stroke" id="_8E5D3C-4" class="cls-11" d="m134.55,220.87v15.1h-22.12s-.57-3.51,3.93-6.78c3.8-2.76,5.73-5.08,6.39-8.33s11.8,0,11.8,0Z"/><path vector-effect="non-scaling-stroke" id="FFC1C7" class="cls-12" d="m134.55,235.97h-22.12s-.46-2.83,2.71-5.78h19.41v5.78Z"/><rect id="D0FFCA" class="cls-11" x="117.08" y="126.68" width="23.61" height="94.19"/><line class="cls-3" x1="120.04" y1="226.09" x2="124.64" y2="226.1"/><g id="Hand"><path vector-effect="non-scaling-stroke" id="_8E5D3C-5" class="cls-12" d="m100.92,111.29c-3.25-.69-12.3-2.19-14.9-2.61-2.1-.34-4.22.38-5.68,1.92l-5.94,6.29c-.87.92-.83,2.36.09,3.23h0c.79.74,1.98.83,2.87.22l.36-.25s2.76,4.7,7.39.14l15.53,4.23.28-13.18Z"/></g><path vector-effect="non-scaling-stroke" class="cls-11" d="m103.55,109.43l13.05-24.87c4.34-9.03,17.59-7.68,20.02,2.04l10.16,40.63h-29.69v-9.55s-3.05,3.83-3.05,3.83c-1.87,2.35-4.47,3.61-7.14,3.84l-9.78.13v-15.81l6.43-.22Z"/><path vector-effect="non-scaling-stroke" class="cls-25" d="m120.82,54.73c7.41,0,13.41,6,13.41,13.41,0,1.7-.32,3.33-.9,4.83h-7.59c-.17-.78-.29-1.54-.38-2.27h0l-.02-.14c-.24-2.15-.17-4.11-.11-5.83.11-3.16.19-5.67-1.75-7.12-3.18-2.37-6.61-1.02-9.11-.04l-.36.14s-.05.02-.08.03c-.03,0-.06.02-.09.04-.16.06-.34.14-.56.25-.07.03-.14.06-.21.1-.02,0-.03.01-.05.02-.09.04-.18.09-.27.14h0c-.28.15-.58.32-.9.52-.01,0-.02.01-.03.02-.22.14-.44.29-.67.46-.11.08-.22.17-.34.26-.11.09-.23.18-.34.28-.21.18-.42.37-.62.57,2.43-3.43,6.43-5.67,10.95-5.67Z"/><polygon class="cls-25" points="118.77 67.62 118.77 72.97 133.13 72.97 127.89 67.82 118.77 67.62"/><path vector-effect="non-scaling-stroke" class="cls-11" d="m6.91,218.46l-7.52,12.12s4.93,6.71,12.58,6.71h11.58s.21-3.73-3.07-6.19c-3.29-2.46-3-4.79-2.79-6.94.21-2.17-10.78-5.7-10.78-5.7Z"/><path vector-effect="non-scaling-stroke" class="cls-11" d="m21.02,231.56c-11.64,2.27-18.82-5.49-18.82-5.49l-2.8,4.52s4.93,6.72,12.58,6.72h11.58s.19-3.3-2.53-5.74Z"/><path vector-effect="non-scaling-stroke" class="cls-25" d="m23.73,237.49h-11.75c-7.65,0-12.68-6.73-12.73-6.79l-.08-.11,3-4.83.16.17c.07.08,7.23,7.67,18.66,5.44h.09s.07.05.07.05c2.75,2.48,2.6,5.76,2.59,5.9v.18s0,0,0,0ZM-.37,230.57c.67.85,5.41,6.54,12.35,6.54h11.39c-.01-.71-.21-3.32-2.4-5.34-9.29,1.78-15.72-2.75-18.06-4.78-.34-.29-.55-.48-.68-.62l-2.6,4.21H-.37Z"/><path vector-effect="non-scaling-stroke" class="cls-25" d="m2.17,225.76l-3,4.83.08.11c.05.06,5.08,6.79,12.73,6.79h11.75v-.18c.02-.14.17-3.42-2.58-5.9l-.07-.06h-.09c-1.46.3-2.85.42-4.17.42-8.97,0-14.42-5.78-14.49-5.85l-.16-.17h0Zm9.81,11.35c-6.94,0-11.68-5.68-12.35-6.54l2.6-4.21c.13.14.34.33.68.62,1.97,1.71,6.84,5.18,13.86,5.18,1.32,0,2.73-.12,4.2-.41,2.19,2.02,2.38,4.64,2.4,5.34h-11.39Zm11.75.39h0s0,0,0,0h0Z"/><path vector-effect="non-scaling-stroke" class="cls-11" d="m41.88,122.33l8.69,52.91c1.01,6.12-.44,12.41-4,17.38l-25.47,35.65-19.49-13.49,27.92-42.9,12.34-49.56h0Z"/><path vector-effect="non-scaling-stroke" class="cls-25" d="m21.14,228.55l-19.79-13.7.1-.16,27.91-42.87,12.55-50.41,8.83,53.8c1.01,6.15-.46,12.54-4.03,17.54l-25.57,35.8h0Zm-19.27-13.8l19.18,13.28,25.37-35.51c3.51-4.91,4.95-11.19,3.96-17.24l-8.54-52.01-12.13,48.71-.02.03L1.88,214.74h0Z"/><path vector-effect="non-scaling-stroke" class="cls-25" d="m41.91,121.4l-12.55,50.41L1.45,214.68l-.1.16,19.79,13.7,25.57-35.8c3.57-5,5.04-11.39,4.03-17.54l-8.83-53.8h0Zm-20.85,106.61l-19.18-13.28h0l27.82-42.74.02-.03,12.13-48.71,8.54,52.01c.99,6.05-.45,12.33-3.96,17.24l-25.37,35.51h0Zm.08.53h0s0,0,0,0h0Z"/><path vector-effect="non-scaling-stroke" class="cls-11" d="m27.15,221.88v15.41h21.79s.56-3.58-3.87-6.92c-3.74-2.82-5.65-5.18-6.29-8.5-.65-3.31-11.62,0-11.62,0Z"/><path vector-effect="non-scaling-stroke" class="cls-11" d="m49.05,237.45h-22.04v-15.67l.1-.03c.35-.11,8.51-2.54,11.05-.93.41.26.65.61.74,1.04.61,3.13,2.36,5.49,6.24,8.41,4.45,3.35,3.95,6.91,3.93,7.06l-.02.12Z"/><path vector-effect="non-scaling-stroke" class="cls-11" d="m44.35,164.48h-23.25v57.41h23.25v-57.41Z"/><path vector-effect="non-scaling-stroke" class="cls-25" d="m44.49,222.03h-23.53v-57.7h23.53v57.7Zm-23.25-.29h22.98v-57.12h-22.98v57.12Z"/><path vector-effect="non-scaling-stroke" class="cls-25" d="m44.49,164.34h-23.53v57.7h23.53v-57.7h0Zm-23.25,57.41v-57.12h22.98v57.12h-22.98Z"/><path vector-effect="non-scaling-stroke" class="cls-13" d="m44.35,164.48h10.99l-12.3-65.18-6.29,14.43,7.59,50.75Z"/><path vector-effect="non-scaling-stroke" class="cls-25" d="m55.51,164.62h-11.28l-.02-.12-7.59-50.8,6.48-14.87,12.41,65.79Zm-11.04-.28h10.71l-12.18-64.58-6.09,13.98,7.56,50.59Z"/><path vector-effect="non-scaling-stroke" class="cls-25" d="m43.1,98.83l-6.48,14.87,7.59,50.8.02.12h11.28l-12.41-65.79h0Zm1.37,65.51l-7.56-50.59,6.09-13.98,12.18,64.58h-10.71Z"/><path vector-effect="non-scaling-stroke" class="cls-13" d="m54.36,102.12l-9.53-20.75c-4.27-9.3-17.33-7.91-19.72,2.1L5.74,164.48h38.61l-.87-54.83,4.23,3.53c1.84,2.41,3.74,3.99,6.35,4.23l.29-15.29Z"/><path vector-effect="non-scaling-stroke" class="cls-25" d="m34.27,75.33c4.48-.48,8.48,1.87,10.43,6.11l7.77,16.91c.1-.03.19-.04.29-.05l-7.8-16.99c-2-4.36-6.1-6.76-10.7-6.27-4.6.49-8.15,3.7-9.27,8.39L5.57,164.63h38.92v-48.48c-.07-.13-.14-.25-.21-.37-.03-.05-.04-.11-.07-.16v48.72H5.9l19.33-80.83c1.1-4.57,4.56-7.7,9.04-8.18Z"/><path vector-effect="non-scaling-stroke" class="cls-25" d="m35.42,74.98c-.39,0-.78.02-1.17.06-4.6.49-8.15,3.7-9.27,8.39L5.57,164.63h38.92v-48.48c-.07-.13-.14-.25-.21-.37-.03-.05-.04-.11-.07-.16v48.72H5.9l19.33-80.83c1.1-4.57,4.56-7.7,9.04-8.18.38-.04.77-.06,1.14-.06,4.01,0,7.5,2.29,9.29,6.17l7.77,16.91c.09-.03.19-.04.29-.05l-7.8-16.99c-1.83-3.98-5.41-6.33-9.53-6.33h0Z"/><polygon class="cls-25" points="32.43 98.58 32.21 98.75 44.24 115.55 44.46 115.38 32.43 98.58"/><polygon class="cls-25" points="32.43 98.58 32.21 98.75 44.24 115.55 44.46 115.38 32.43 98.58 32.43 98.58"/><rect class="cls-25" x="15.82" y="122.18" width="28.53" height=".29"/><polygon class="cls-25" points="44.35 122.18 15.82 122.18 15.82 122.47 44.35 122.47 44.35 122.18 44.35 122.18"/><path vector-effect="non-scaling-stroke" class="cls-11" d="m44.35,131.9h-9.16v13.87c0,3.75,2.91,6.79,6.49,6.79h2.67v-20.66Z"/><path vector-effect="non-scaling-stroke" class="cls-25" d="m44.49,152.7h-2.81c-3.66,0-6.63-3.11-6.63-6.93v-14.01h9.43v20.94Zm-9.16-20.66v13.72c0,3.66,2.85,6.65,6.35,6.65h2.53v-20.37h-8.88Z"/><path vector-effect="non-scaling-stroke" class="cls-25" d="m44.49,131.77h-9.43v14.01c0,3.82,2.97,6.93,6.63,6.93h2.81v-20.94h0Zm-2.81,20.65c-3.5,0-6.35-2.99-6.35-6.65v-13.72h8.88v20.37h-2.53Z"/><g id="Hand-2"><path vector-effect="non-scaling-stroke" id="_8E5D3C-6" class="cls-11" d="m67.09,107.56c3.33-.16,7.1-.2,9.74-.21,2.13,0,4.13,1.05,5.33,2.82l4.89,7.2c.71,1.05.44,2.48-.61,3.19h0c-.9.61-2.1.51-2.89-.25l-.32-.31s-6.9,4.23-10.77-1.04l-7.92.94,2.54-12.36Z"/><path vector-effect="non-scaling-stroke" id="_000000-8" class="cls-11" d="m64.37,120.08l2.6-12.65h.11c3.36-.17,7.16-.21,9.75-.21,2.18,0,4.22,1.07,5.45,2.88l4.89,7.2c.76,1.11.47,2.63-.65,3.39-.95.64-2.24.53-3.06-.26l-.24-.24c-.85.48-7.15,3.82-10.81-1.06l-8.04.95Zm2.83-12.38l-2.48,12.06,7.81-.93.05.07c3.75,5.1,10.51,1.04,10.58,1l.09-.06.4.38c.73.7,1.87.8,2.71.23.98-.67,1.24-2.01.57-3l-4.89-7.2c-1.18-1.73-3.12-2.76-5.21-2.76-2.56,0-6.3.04-9.63.2Z"/></g><path vector-effect="non-scaling-stroke" class="cls-13" d="m58,106.18l-13.12-25.01c-4.36-9.08-17.69-7.72-20.13,2.05l-9.5,41.25h28.94l.2-10,3.07,3.85c1.88,2.36,4.5,3.63,7.18,3.86l15.98.13v-16.13h-12.62Z"/><rect id="_000000-9" class="cls-11" x="38.11" y="96.02" width=".28" height="20.5" transform="translate(-56.05 44.12) rotate(-36.82)"/><line class="cls-3" x1="101.35" y1="109.65" x2="101.35" y2="125.18"/><line class="cls-3" x1="97.47" y1="113.18" x2="101.71" y2="113.18"/><line class="cls-3" x1="97.47" y1="117.41" x2="101.71" y2="117.41"/><line class="cls-3" x1="97.47" y1="121.65" x2="101.71" y2="121.65"/><line class="cls-3" x1="116.88" y1="214.81" x2="140.88" y2="214.81"/><line class="cls-10" x1="117.08" y1="117.67" x2="117.08" y2="83.71"/><path vector-effect="non-scaling-stroke" class="cls-12" d="m131.18,146.42c3.38,3.38,5.9,11.81,3.01,11.84-1.81.03-1.75-7.41-1.75-7.41l-1.26-4.43h0Z"/><path vector-effect="non-scaling-stroke" class="cls-25" d="m130.9,145.93l.39.39c2.75,2.75,5.04,9.07,4.08,11.27-.23.52-.63.8-1.18.81-1.88.03-1.9-6.67-1.89-7.53l-1.41-4.94Zm2.86,11.98c.13.13.28.21.44.2.42,0,.72-.21.91-.63.88-2.02-1.12-7.67-3.64-10.53l1.11,3.89c-.02,1.79.18,6.09,1.17,7.08h0Z"/><path vector-effect="non-scaling-stroke" class="cls-25" d="m130.9,145.93l1.41,4.94c-.01.86,0,7.53,1.87,7.53,0,0,0,0,.01,0,.54,0,.94-.28,1.18-.81.96-2.2-1.33-8.51-4.08-11.27l-.39-.39h0Zm2.86,11.99c-.99-.99-1.19-5.29-1.17-7.08l-1.11-3.89c2.52,2.87,4.52,8.52,3.64,10.53-.19.42-.49.63-.91.63,0,0-.01,0-.02,0-.16,0-.3-.07-.43-.2h0Z"/><path vector-effect="non-scaling-stroke" class="cls-12" d="m130.33,157.17v9.54c.02.66.6,1.17,1.24,1.08,1.09-.13,2.57-.8,2.96-3.3.63-4.1-4.2-7.32-4.2-7.32h0Z"/><path vector-effect="non-scaling-stroke" class="cls-12" d="m124.41,141.86c0,.05,0,.1,0,.16-.08,1.35-.18,2.7-.28,4.04-.19,2.48-.42,4.95-.69,7.42-.03.23-.05.47,0,.7.07.31.29.58.49.83,3.41,4.26,5.44,9.62,5.71,15.07,0,.18.03.38.17.48.08.06.19.07.29.07.74-.01,1.38-.56,1.71-1.22s.39-1.42.41-2.15c.08-2.71-.32-5.44-1.33-7.95-.1-.24-.2-.48-.19-.73.01-.29.16-.55.32-.79.66-1.07,1.39-2.12,1.89-3.28,1.19-2.75.99-6.06-.53-8.64-.16-.27-.34-.54-.38-.86-.03-.21,0-.42.03-.64.31-2.01.61-4.02.92-6.03-1.35,0-2.7,0-4.05,0h-2.02c-.61,0-1.43-.15-2.02,0-.34.08-.25.23-.27.61-.02.35-.04.7-.05,1.05-.03.62-.07,1.25-.11,1.87Z"/><polyline class="cls-11" points="136.46 98.11 136.46 140.1 122.34 140.1 122.34 98.11"/><rect class="cls-11" x="122.34" y="135.56" width="14.12" height="4.54"/><line class="cls-3" x1="126.58" y1="135.52" x2="126.58" y2="140.1"/><line class="cls-3" x1="131.52" y1="135.52" x2="131.52" y2="140.1"/><g id="Finger"><path vector-effect="non-scaling-stroke" id="C4936E" class="cls-12" d="m84.6,110.05l-7.62,4.79c-.52.32-.6,1.03-.19,1.48.71.77,2.36,1.27,4.58.31,1.91-.83,2.86-2.29,3.57-3.7"/></g><line class="cls-3" x1="26.66" y1="231.16" x2="46.1" y2="231.16"/><path vector-effect="non-scaling-stroke" class="cls-12" d="m428.32,168.34c.32,1.26.53,2.55.97,3.78.03.08.06.16.09.24.4.97,1.07,1.78,1.84,2.5,1.63,1.51,3.8,2.36,6.02,2.36h2.64s0-.08,0-.08v-4.04s0-6.98,0-6.98h3.95v6.98s4.74,0,4.74,0c2.21,0,4.39-.85,6.02-2.36.77-.71,1.44-1.53,1.84-2.5.03-.08.07-.16.09-.24.44-1.23.65-2.52.97-3.78h3.98c0,7.13-5.78,12.92-12.9,12.92h-4.74s.85,51.07.85,51.07h-3.95s-.85-46.95-.85-46.95h-2.64c-7.12,0-12.9-5.78-12.9-12.92h3.98Z"/><path vector-effect="non-scaling-stroke" class="cls-11" d="m407.08,168.34c1.77-5.37,18.23-11.71,20.16-12.33,1.17-6.59,6.92-11.59,13.84-11.59s12.4,4.77,13.76,11.12c.29-.02.57-.04.87-.04,3.61,0,6.79,1.81,8.71,4.57,1.72-1.51,3.96-2.43,6.42-2.43,5.38,0,9.73,4.36,9.73,9.75,0,.32,0,.63-.04.95h-73.46Z"/><path vector-effect="non-scaling-stroke" class="cls-4" d="m185.47,143.02c-6.89.81-13.58,3.85-18.87,9.14-12.48,12.48-12.48,32.71,0,45.19,3.21,3.21,6.93,5.58,10.9,7.14"/><path vector-effect="non-scaling-stroke" class="cls-12" d="m608.05,55.96c-.32,1.26-.53,2.55-.97,3.78-.03.08-.06.16-.09.24-.4.97-1.07,1.78-1.84,2.5-1.63,1.51-3.8,2.36-6.02,2.36h-2.64v-11.1h-3.95v6.98h-4.74c-2.21,0-4.39-.85-6.02-2.36-.77-.71-1.44-1.53-1.84-2.5-.03-.08-.07-.16-.09-.24-.44-1.23-.65-2.52-.97-3.78h-3.98c0,7.13,5.78,12.92,12.9,12.92h4.74v31.63h3.95v-27.51h2.64c7.12,0,12.9-5.78,12.9-12.92h-3.98Z"/><path vector-effect="non-scaling-stroke" class="cls-11" d="m629.3,55.96c-1.77-5.37-6.83-9.25-12.79-9.25-.85,0-1.66.08-2.46.23-1.28-1.53-2.97-2.69-4.91-3.31-1.17-6.59-6.92-11.59-13.84-11.59s-12.4,4.77-13.76,11.12c-.29-.02-.57-.04-.87-.04-3.61,0-6.79,1.81-8.71,4.57-1.72-1.51-3.96-2.43-6.42-2.43-5.38,0-9.73,4.36-9.73,9.75,0,.32,0,.63.04.95h73.46Z"/><polygon class="cls-27" points="193.42 153.54 199.83 106.38 218.03 107.51 206.18 153.76 193.42 153.54"/><path vector-effect="non-scaling-stroke" class="cls-9" d="m206.27,153.89l-12.99-.22,6.44-47.42,18.46,1.15-.04.15-11.87,46.35h0Zm-12.71-.48l12.52.22,11.79-46.01-17.94-1.11-6.37,46.9h0Z"/><path vector-effect="non-scaling-stroke" class="cls-26" d="m200.31,159.91c3.62-.19,6.4-3.35,6.2-7.05-.2-3.69-3.3-6.53-6.92-6.34-3.62.19-6.4,3.35-6.2,7.04.2,3.7,3.3,6.54,6.92,6.34Z"/><path vector-effect="non-scaling-stroke" class="cls-8" d="m200.26,160.18c-3.73.2-6.92-2.73-7.12-6.53-.2-3.8,2.66-7.05,6.38-7.25s6.92,2.73,7.13,6.53-2.66,7.05-6.39,7.25Zm-.73-13.52c-3.58.19-6.34,3.32-6.15,6.98.2,3.66,3.27,6.48,6.86,6.29s6.34-3.33,6.15-6.99c-.2-3.66-3.27-6.47-6.86-6.28Z"/><path vector-effect="non-scaling-stroke" class="cls-12" d="m199.92,155.22c1.07-.06,1.89-1.01,1.83-2.13s-.98-1.98-2.05-1.92-1.89,1.01-1.83,2.13.98,1.98,2.05,1.92Z"/><path vector-effect="non-scaling-stroke" class="cls-25" d="m199.93,155.35c-1.14.06-2.12-.86-2.18-2.05s.81-2.21,1.95-2.27,2.11.86,2.18,2.05-.81,2.21-1.95,2.27Zm-.22-4.06c-1,.05-1.77.96-1.72,2s.92,1.86,1.92,1.8,1.77-.96,1.72-2-.92-1.86-1.92-1.81Z"/><path vector-effect="non-scaling-stroke" class="cls-17" d="m295.11,220.85l-30.55-14.73,18.2-28.78,33.49,1.7,8.04,29.07-29.19,12.74Z"/><path vector-effect="non-scaling-stroke" class="cls-16" d="m295.11,221.05l-.08-.04-30.75-14.82.1-.18,18.27-28.88,33.74,1.71,8.12,29.36-.16.07-29.25,12.78Zm-30.29-15.02l30.29,14.6,28.95-12.64-7.95-28.78-33.26-1.69-18.03,28.51h0Z"/><path vector-effect="non-scaling-stroke" class="cls-18" d="m375.46,233.2c0-19.66-13.53-27.59-27.64-34.22-14.09-6.63-23.88-11.1-31.57-19.95,0,0-4.87,28.51-27.73,31.22-16.37,1.94-17.08-11.71-14.3-18.27l-54.65,21.3,18.01,19.93h137.86Z"/><path vector-effect="non-scaling-stroke" class="cls-18" d="m375.65,233.38h-138.19l-18.12-20.23,55.22-21.52-.17.41c-1.63,3.85-2.02,9.86,1.01,13.92,2.51,3.39,7.05,4.8,13.09,4.09,11.74-1.39,18.59-9.75,22.29-16.52,4.02-7.35,5.26-14.47,5.28-14.54l.07-.39.26.3c7.47,8.59,17.1,13.12,30.42,19.39l1.08.51c14.04,6.61,27.75,14.71,27.75,34.39v.19h0Zm-137.92-.37h137.54c-.04-8.79-2.81-15.88-8.47-21.68-4.84-4.95-11.11-8.45-19.05-12.19l-1.08-.51c-13.23-6.22-22.82-10.74-30.3-19.2-.31,1.58-1.73,7.84-5.24,14.27-3.73,6.85-10.68,15.31-22.58,16.72-6.18.73-10.84-.73-13.43-4.23-3.02-4.05-2.76-9.94-1.22-13.89l-54.08,21.08,17.91,19.63h0Z"/><path vector-effect="non-scaling-stroke" class="cls-18" d="m279.31,194.68h-.36v5.2h.36v-5.2Z"/><path vector-effect="non-scaling-stroke" class="cls-28" d="m315.98,179.61c-7.44-10.66-6.18-21.76-5.44-31.02.74-9.25,1.73-22.26-7.21-27.25-8.94-5-48.68,15.5-48.68,15.5,0,0,4.48,37.51,5.46,44.76.99,7.25,5.96,14.26,16.39,13.5,6-.43,11.35-4.76,14.81-8.35"/><path vector-effect="non-scaling-stroke" class="cls-2" d="m315.98,179.61c-7.44-10.66-6.18-21.76-5.44-31.02.74-9.25,1.73-22.26-7.21-27.25-8.94-5-48.68,15.5-48.68,15.5,0,0,4.48,37.51,5.46,44.76.99,7.25,5.96,14.26,16.39,13.5,6-.43,11.35-4.76,14.81-8.35"/><path vector-effect="non-scaling-stroke" class="cls-18" d="m274.99,195.35c-9.68,0-14.13-6.96-15.05-13.72-.99-7.17-5.43-44.39-5.46-44.76l-.03-.13.12-.06c1.63-.84,39.93-20.5,48.86-15.5,9.1,5.09,8.01,18.54,7.3,27.43l-.04.48c-.73,9.09-1.56,19.39,5.71,29.82l-.3.22c-7.36-10.54-6.52-20.91-5.79-30.07l.05-.48c.7-8.8,1.77-22.11-7.12-27.08-8.51-4.76-46,14.23-48.39,15.45.3,2.44,4.5,37.67,5.45,44.63.95,6.94,5.7,14.1,16.2,13.34,5.96-.43,11.27-4.75,14.68-8.29l.27.26c-3.46,3.6-8.85,7.97-14.92,8.41-.53.04-1.04.06-1.54.06Z"/><path vector-effect="non-scaling-stroke" class="cls-28" d="m263.12,151.42l-2.6,9.7c-.73,2.7,1.37,5.33,4.14,5.21l4.09-.17-5.62-14.74Z"/><path vector-effect="non-scaling-stroke" class="cls-18" d="m264.47,166.52c-1.3,0-2.52-.59-3.34-1.62-.86-1.09-1.15-2.48-.78-3.83l2.6-9.7.36.1-2.62,9.7c-.33,1.23-.07,2.5.73,3.49.79,1,1.98,1.53,3.23,1.48l4.09-.17v.37s-4.07.17-4.07.17h-.2Z"/><path vector-effect="non-scaling-stroke" class="cls-18" d="m265.54,172.06c-2,0-3.1-.23-3.12-.23l.08-.37s4.38.9,11.57-.93l.09.36c-3.67.93-6.6,1.17-8.63,1.17h.01Z"/><path vector-effect="non-scaling-stroke" class="cls-25" d="m313.56,169.34c-2.12-7.09-1.55-14.09-1.05-20.27l.04-.45c.52-6.47,1.22-15.33-1.86-21.6l-.09-.17-19.36,10.72.03.13c.05.26,5.24,25.65,22.04,31.87l.38.19-.12-.42h0Z"/><path vector-effect="non-scaling-stroke" class="cls-28" d="m291.57,146.98c3.04-3.56,6.61-5.38,10.34-1.96,3.7,3.39,4.39,13.73-3.03,16.18l-7.31-14.21h0Z"/><path vector-effect="non-scaling-stroke" class="cls-19" d="m298.94,161.37l-.12-.36c2.8-.92,4.71-3.14,5.36-6.24.75-3.55-.27-7.68-2.38-9.62-1.38-1.26-2.8-1.85-4.25-1.77-1.86.11-3.83,1.36-5.83,3.71l-.29-.25c2.08-2.43,4.12-3.72,6.09-3.84,1.56-.09,3.07.53,4.53,1.86,2.2,2.02,3.28,6.31,2.5,9.98-.69,3.23-2.68,5.55-5.61,6.52h0Z"/><path vector-effect="non-scaling-stroke" class="cls-20" d="m315.23,135.48s-25.59,12.78-67.01,8.23c0,0,3.24-4.62,3.8-11.84.56-7.22,1.69-20.08,18.03-25.72,16.36-5.64,37.67-3.22,41.19,15.94,1.61,8.79,3.98,13.38,3.98,13.38h0Z"/><path vector-effect="non-scaling-stroke" class="cls-18" d="m265.7,144.86c-5.47,0-11.32-.29-17.51-.97l-.31-.04.18-.26s3.23-4.67,3.77-11.75c.55-7.05,1.56-20.15,18.16-25.87,11.42-3.94,23.42-3.5,31.31,1.14,5.49,3.23,8.9,8.26,10.12,14.94,1.59,8.65,3.96,13.28,3.98,13.33l.08.17-.17.09c-.22.11-18.89,9.22-49.6,9.22h-.01Zm-17.18-1.31c39,4.2,64.16-7.09,66.45-8.16-.44-.92-2.5-5.48-3.92-13.26-1.21-6.57-4.55-11.52-9.95-14.69-7.79-4.59-19.67-5.01-30.99-1.11-16.37,5.64-17.37,18.59-17.92,25.55-.48,6.22-2.98,10.59-3.67,11.67h0Z"/><path vector-effect="non-scaling-stroke" class="cls-18" d="m257.53,144.64c-.01-.13-1.34-12.72-1.67-18.41-.34-5.85-.03-12.5,8.11-17.5l.2.32c-7.95,4.9-8.26,11.43-7.92,17.16.33,5.68,1.64,18.26,1.65,18.39l-.36.04Zm15.97-.24c-.03-.13-1.35-13.65-1.35-22.02,0-6.47,2.75-12.35,7.33-15.72,2.89-2.13,7.82-4.2,14.9-1.94l.12-.36c-7.22-2.3-12.28-.18-15.25,2-4.67,3.45-7.47,9.44-7.47,16.03,0,8.39,1.34,21.92,1.35,22.05l.38-.04Z"/><path vector-effect="non-scaling-stroke" class="cls-19" d="m358.06,227.24h.01s-135.02,0-135.02,0c-7.87,0-15.55,1.54-22.84,4.57-7.27,3.03-13.79,7.41-19.36,13.02L-14.74,441.09H11.15l182.85-183.01c7.76-7.81,18.07-12.12,29.05-12.12h135.01c5.13,0,9.3-4.19,9.3-9.36s-4.16-9.36-9.3-9.36Z"/><path vector-effect="non-scaling-stroke" class="cls-19" d="m657.08,22.19l-189.81,191.52c-7.71,7.86-17.99,12.23-28.97,12.3l-121.2.76v18.72l121.31-.76c7.87-.05,15.54-1.64,22.81-4.72,7.25-3.08,13.74-7.5,19.28-13.14L682.97,22.03l-25.89.16Z"/><path vector-effect="non-scaling-stroke" class="cls-18" d="m358.07,227.08h0s-135.02,0-135.02,0c-7.9,0-15.6,1.54-22.9,4.59-7.29,3.04-13.82,7.44-19.41,13.06L-14.97,441.09l77.75-77.32,118.19-118.82c5.56-5.6,12.05-9.96,19.31-12.99,7.26-3.03,14.92-4.56,22.77-4.56h135.02c5.04,0,9.14,4.13,9.14,9.2s-4.1,9.2-9.14,9.2h-135.02c-11.01,0-21.37,4.32-29.16,12.16L10.92,441.09h.44l182.74-182.9c7.73-7.78,18.01-12.07,28.94-12.07h135.02c5.21,0,9.45-4.27,9.45-9.52s-4.24-9.52-9.45-9.52Z"/><path vector-effect="non-scaling-stroke" class="cls-18" d="m125.78,322.85c5.12,0,9.27-4.18,9.27-9.33s-4.14-9.33-9.27-9.33-9.26,4.18-9.26,9.33,4.14,9.33,9.26,9.33Z"/><path vector-effect="non-scaling-stroke" class="cls-18" d="m125.78,323c-5.19,0-9.42-4.25-9.42-9.48s4.23-9.48,9.42-9.48,9.43,4.25,9.43,9.48-4.23,9.48-9.43,9.48Zm0-18.65c-5.02,0-9.1,4.11-9.1,9.17s4.09,9.17,9.1,9.17,9.11-4.11,9.11-9.17-4.09-9.17-9.11-9.17Z"/><path vector-effect="non-scaling-stroke" class="cls-18" d="m367.36,236.6c0-5.17-4.15-9.36-9.29-9.36s-9.3,4.19-9.3,9.36,4.16,9.36,9.3,9.36,9.29-4.19,9.29-9.36Z"/><path vector-effect="non-scaling-stroke" class="cls-18" d="m358.07,246.12c-5.21,0-9.46-4.27-9.46-9.52s4.24-9.52,9.46-9.52,9.45,4.27,9.45,9.52-4.24,9.52-9.45,9.52Zm0-18.72c-5.05,0-9.15,4.13-9.15,9.2s4.1,9.2,9.15,9.2,9.14-4.13,9.14-9.2-4.1-9.2-9.14-9.2Z"/><path vector-effect="non-scaling-stroke" class="cls-11" d="m334.67,211.75h-30.94v15.49h30.94v-15.49Z"/><path vector-effect="non-scaling-stroke" class="cls-11" d="m303.57,211.6v15.81h31.25v-15.81h-31.25Zm30.94.31v7.44h-30.62v-7.44h30.62Zm-30.62,15.18v-7.44h30.62v7.44h-30.62Z"/><path vector-effect="non-scaling-stroke" class="cls-26" d="m241.58,211.75h-30.94v15.49h30.94v-15.49Z"/><path vector-effect="non-scaling-stroke" class="cls-18" d="m210.49,211.6v15.81h31.24v-15.81h-31.24Zm30.93.31v7.44h-30.62v-7.44h30.62Zm-30.62,15.18v-7.44h30.62v7.44h-30.62Z"/><path vector-effect="non-scaling-stroke" class="cls-13" d="m423.02,210.27l-30.94.19.1,15.49,30.94-.19-.1-15.49Z"/><path vector-effect="non-scaling-stroke" class="cls-11" d="m391.93,210.32l.1,15.81,31.24-.2-.1-15.81-31.24.2Zm30.93.12l.05,7.44-30.62.19-.05-7.44,30.62-.19Zm-30.53,15.38l-.05-7.44,30.62-.19.05,7.44-30.62.19Z"/><path vector-effect="non-scaling-stroke" class="cls-13" d="m498.44,160.56l-21.74,22.01,11.02,10.89,21.74-22.01-11.02-10.89Z"/><path vector-effect="non-scaling-stroke" class="cls-18" d="m476.49,182.57l11.25,11.11,21.95-22.23-11.25-11.11-21.95,22.23Zm21.95-21.79l5.29,5.23-21.52,21.79-5.29-5.23,21.52-21.79Zm-10.72,32.46l-5.29-5.23,21.52-21.79,5.29,5.23-21.52,21.79Z"/><path vector-effect="non-scaling-stroke" class="cls-20" d="m577.64,79.73l-21.74,22.01,11.02,10.89,21.74-22.01-11.02-10.89Z"/><path vector-effect="non-scaling-stroke" class="cls-18" d="m555.68,101.74l11.25,11.11,21.95-22.23-11.25-11.11-21.95,22.23Zm21.95-21.79l5.29,5.23-21.52,21.79-5.29-5.23,21.52-21.79Zm-10.72,32.46l-5.29-5.23,21.52-21.79,5.29,5.23-21.52,21.79Z"/><path vector-effect="non-scaling-stroke" class="cls-20" d="m648.19,9.17l-21.74,22.01,11.02,10.89,21.74-22.01-11.02-10.89Z"/><path vector-effect="non-scaling-stroke" class="cls-18" d="m626.24,31.18l11.25,11.11,21.95-22.23-11.25-11.11-21.95,22.23Zm21.95-21.79l5.29,5.23-21.52,21.79-5.29-5.23,21.52-21.79Zm-10.72,32.46l-5.29-5.23,21.52-21.79,5.29,5.23-21.52,21.79Z"/><rect class="cls-22" x="189.48" y="167.45" width="30.94" height="15.49" transform="translate(-35.37 52.95) rotate(-13.56)"/><path vector-effect="non-scaling-stroke" class="cls-18" d="m187.92,171.18l3.71,15.37,30.37-7.33-3.71-15.37-30.37,7.33Zm30.14-6.95l1.74,7.23-29.77,7.18-1.74-7.23,29.77-7.18Zm-26.21,21.94l-1.74-7.23,29.77-7.18,1.74,7.23-29.77,7.18Z"/><path vector-effect="non-scaling-stroke" class="cls-18" d="m159.28,244.94l-21.96,21.93,10.84,11,21.96-21.93-10.84-11Z"/><path vector-effect="non-scaling-stroke" class="cls-11" d="m159.29,244.72l-22.08,22.04-.11.11,11.05,11.22,22.08-22.04.11-.11-11.05-11.22Zm0,.44l5.2,5.28-21.75,21.71-5.21-5.28,21.76-21.71Zm-11.13,32.49l-5.2-5.28,21.75-21.72,5.2,5.28-21.75,21.71Z"/><path vector-effect="non-scaling-stroke" class="cls-18" d="m3.8,400.2l-22.08,22.04-.11.11,11.05,11.22,22.08-22.04.11-.11-11.05-11.22Zm0,.44l5.2,5.28-21.75,21.71-5.21-5.28,21.76-21.71Zm-11.13,32.49l-5.2-5.28,21.75-21.72,5.2,5.28-21.75,21.71Z"/><path vector-effect="non-scaling-stroke" class="cls-18" d="m95.84,308.9l-21.96,21.93,10.84,11,21.96-21.93-10.84-11Z"/><path vector-effect="non-scaling-stroke" class="cls-18" d="m95.85,308.68l-22.08,22.04-.11.11,11.05,11.22,22.08-22.04.11-.11-11.05-11.22Zm0,.44l5.2,5.28-21.75,21.71-5.21-5.28,21.76-21.71Zm-11.13,32.49l-5.2-5.28,21.75-21.72,5.2,5.28-21.75,21.71Z"/><polygon class="cls-27" points="267.25 70.02 275.89 39.42 364.74 78.68 346.35 119.06 267.25 70.02"/><path vector-effect="non-scaling-stroke" class="cls-25" d="m276.05,39.76l88.36,39.04-18.16,39.89-78.7-48.8,8.51-30.14m-.32-.69l-8.77,31.06,79.51,49.3,18.61-40.87-89.35-39.48h0Z"/><path vector-effect="non-scaling-stroke" class="cls-25" d="m346.56,119.74l-.2-.13-79.64-49.38,8.88-31.45,89.76,39.66-18.8,41.29h.01Zm-79.35-49.72l79.17,49.09,18.41-40.45-88.93-39.3-8.65,30.66Z"/><path vector-effect="non-scaling-stroke" class="cls-25" d="m275.59,38.77l-8.88,31.45,79.64,49.38.2.13h-.01s18.8-41.3,18.8-41.3l-89.76-39.66h0Zm70.79,80.34l-79.17-49.09,8.65-30.66,88.93,39.3-18.41,40.45h0Z"/><polygon class="cls-27" points="201.68 98.98 261.19 43.72 283.72 64.68 218 112.86 201.68 98.98"/><path vector-effect="non-scaling-stroke" class="cls-25" d="m261.19,44.06l22.14,20.6-65.32,47.88-15.96-13.57,59.14-54.91m0-.68l-59.89,55.61,16.69,14.19,66.13-48.47-22.92-21.33h0Z"/><path vector-effect="non-scaling-stroke" class="cls-25" d="m217.97,113.45l-17-14.45,60.22-55.92,23.25,21.64-.21.15-66.26,48.57h0Zm-16.35-14.48l16.38,13.93,65.77-48.21-22.59-21.02-59.56,55.3h0Z"/><path vector-effect="non-scaling-stroke" class="cls-25" d="m261.19,43.08l-60.22,55.92,17,14.45,66.26-48.57.21-.15-23.25-21.64h0Zm-43.19,69.81l-16.38-13.93h0s59.56-55.31,59.56-55.31l22.59,21.02-65.77,48.21h0Z"/><polygon class="cls-27" points="316.29 248.6 332.58 98.4 375.56 98.4 372.77 248.6 316.29 248.6"/><path vector-effect="non-scaling-stroke" class="cls-25" d="m375.31,98.65l-2.79,149.69h-55.95l16.23-149.69h42.5m.51-.5h-43.46l-16.34,150.69h57l2.8-150.69h0Z"/><path vector-effect="non-scaling-stroke" class="cls-25" d="m373.23,249.06h-57.45l.03-.24,16.36-150.89h43.86v.22l-2.8,150.91h0Zm-56.98-.43h56.56l2.79-150.25h-43.05l-16.3,150.25h0Z"/><path vector-effect="non-scaling-stroke" class="cls-25" d="m376.03,97.94h-43.86l-16.36,150.89-.03.24h57.45l2.8-150.91v-.22h0Zm-.43.44l-2.79,150.25h-56.56l16.3-150.25h43.05Z"/><path vector-effect="non-scaling-stroke" class="cls-26" d="m304.88,256.44c.13-24.61,19.31-44.58,42.87-44.58s42.74,19.98,42.87,44.58h-85.74Z"/><path vector-effect="non-scaling-stroke" class="cls-25" d="m347.75,212.11c23.34,0,42.36,19.73,42.62,44.08h-85.23c.26-24.35,19.28-44.08,42.62-44.08m0-.5c-23.81,0-43.12,20.18-43.12,45.08h86.24c0-24.9-19.31-45.08-43.12-45.08h0Z"/><path vector-effect="non-scaling-stroke" class="cls-25" d="m381.33,228.46c-5.2-6.73-12.2-11.88-20.23-14.63,8.03,2.74,15.04,7.89,20.23,14.63Z"/><path vector-effect="non-scaling-stroke" class="cls-25" d="m347.75,211.37c-23.9,0-43.35,20.33-43.35,45.32v.24h86.69v-.24c0-24.99-19.44-45.32-43.35-45.32h0Zm-42.89,45.08c.12-24.61,19.31-44.59,42.88-44.59s42.76,19.98,42.89,44.59h-85.77Z"/><path vector-effect="non-scaling-stroke" class="cls-27" d="m335.56,256.45c.13-6.92,5.55-12.51,12.19-12.51s12.05,5.59,12.18,12.51h-24.37Z"/><path vector-effect="non-scaling-stroke" class="cls-25" d="m347.75,244.19c6.42,0,11.67,5.34,11.92,12h-23.85c.25-6.66,5.51-12,11.93-12m0-.5c-6.87,0-12.44,5.83-12.44,13h24.87c0-7.18-5.56-13-12.43-13h0Z"/><path vector-effect="non-scaling-stroke" class="cls-25" d="m356.66,247.64c-1.08-1.16-2.37-2.11-3.79-2.79,1.43.68,2.71,1.63,3.79,2.79Z"/><path vector-effect="non-scaling-stroke" class="cls-25" d="m347.75,243.44c-6.99,0-12.67,5.95-12.67,13.24v.25h25.34v-.25c0-7.3-5.68-13.24-12.67-13.24h0Zm-12.2,13.01c.12-6.93,5.55-12.51,12.2-12.51s12.07,5.6,12.2,12.51h-24.41Z"/><path vector-effect="non-scaling-stroke" class="cls-26" d="m354.08,120.62c-11.84,0-21.48-10.08-21.48-22.47s9.63-22.47,21.48-22.47,21.49,10.08,21.49,22.47-9.64,22.47-21.49,22.47Z"/><path vector-effect="non-scaling-stroke" class="cls-25" d="m354.08,75.94c11.71,0,21.24,9.97,21.24,22.22s-9.53,22.22-21.24,22.22-21.22-9.97-21.22-22.22,9.52-22.22,21.22-22.22m0-.5c-12,0-21.72,10.17-21.72,22.72s9.73,22.72,21.72,22.72,21.74-10.17,21.74-22.72-9.73-22.72-21.74-22.72h0Z"/><path vector-effect="non-scaling-stroke" class="cls-25" d="m354.09,121.1c-12.1,0-21.94-10.29-21.94-22.93s9.84-22.93,21.94-22.93,21.93,10.29,21.93,22.93-9.84,22.93-21.93,22.93Zm0-45.43c-11.87,0-21.52,10.1-21.52,22.5s9.65,22.49,21.52,22.49,21.51-10.09,21.51-22.49-9.65-22.5-21.51-22.5Z"/><path vector-effect="non-scaling-stroke" class="cls-25" d="m354.09,75.23c-12.1,0-21.94,10.29-21.94,22.93s9.84,22.93,21.94,22.93,21.93-10.29,21.93-22.93-9.84-22.93-21.93-22.93h0Zm0,45.42c-11.87,0-21.52-10.09-21.52-22.49s9.65-22.5,21.52-22.5,21.51,10.1,21.51,22.5-9.65,22.49-21.51,22.49h0Z"/><path vector-effect="non-scaling-stroke" class="cls-27" d="m354.09,104.8c-3.51,0-6.36-2.99-6.36-6.66s2.85-6.65,6.36-6.65,6.35,2.98,6.35,6.65-2.85,6.66-6.35,6.66Z"/><path vector-effect="non-scaling-stroke" class="cls-25" d="m354.09,91.73c3.36,0,6.1,2.87,6.1,6.4s-2.74,6.41-6.1,6.41-6.11-2.88-6.11-6.41,2.74-6.4,6.11-6.4m0-.5c-3.66,0-6.61,3.1-6.61,6.9s2.96,6.91,6.61,6.91,6.6-3.1,6.6-6.91-2.96-6.9-6.6-6.9h0Z"/><path vector-effect="non-scaling-stroke" class="cls-25" d="m354.09,105.26c-3.76,0-6.82-3.2-6.82-7.13s3.05-7.12,6.82-7.12,6.81,3.19,6.81,7.12-3.05,7.13-6.81,7.13Zm0-13.82c-3.53,0-6.41,3-6.41,6.69s2.87,6.69,6.41,6.69,6.4-3,6.4-6.69-2.87-6.69-6.4-6.69Z"/><path vector-effect="non-scaling-stroke" class="cls-25" d="m354.09,91.01c-3.76,0-6.82,3.19-6.82,7.12s3.05,7.13,6.82,7.13,6.81-3.2,6.81-7.13-3.05-7.12-6.81-7.12h0Zm0,13.81c-3.54,0-6.41-3-6.41-6.69s2.88-6.69,6.41-6.69,6.4,3,6.4,6.69-2.87,6.69-6.4,6.69h0Z"/><path vector-effect="non-scaling-stroke" class="cls-26" d="m272.15,70.81c-8.5,0-15.41-7.23-15.41-16.12s6.91-16.12,15.41-16.12,15.41,7.23,15.41,16.12-6.91,16.12-15.41,16.12Z"/><path vector-effect="non-scaling-stroke" class="cls-25" d="m272.15,38.81c8.36,0,15.16,7.12,15.16,15.87s-6.8,15.87-15.16,15.87-15.16-7.12-15.16-15.87,6.8-15.87,15.16-15.87m0-.5c-8.65,0-15.66,7.32-15.66,16.37s7.01,16.37,15.66,16.37,15.66-7.34,15.66-16.37-7.01-16.37-15.66-16.37h0Z"/><path vector-effect="non-scaling-stroke" class="cls-25" d="m272.15,71.26c-8.75,0-15.87-7.44-15.87-16.59s7.12-16.59,15.87-16.59,15.87,7.44,15.87,16.59-7.12,16.59-15.87,16.59Zm0-32.74c-8.52,0-15.45,7.25-15.45,16.15s6.93,16.16,15.45,16.16,15.45-7.25,15.45-16.16-6.93-16.15-15.45-16.15Z"/><path vector-effect="non-scaling-stroke" class="cls-25" d="m272.15,38.08c-8.75,0-15.87,7.44-15.87,16.59s7.12,16.59,15.87,16.59,15.87-7.44,15.87-16.59-7.12-16.59-15.87-16.59h0Zm0,32.75c-8.52,0-15.45-7.25-15.45-16.16s6.93-16.15,15.45-16.15,15.45,7.24,15.45,16.15-6.93,16.16-15.45,16.16h0Z"/><path vector-effect="non-scaling-stroke" class="cls-27" d="m272.15,59.4c-2.49,0-4.51-2.12-4.51-4.73s2.03-4.73,4.51-4.73,4.51,2.12,4.51,4.73-2.02,4.73-4.51,4.73Z"/><path vector-effect="non-scaling-stroke" class="cls-25" d="m272.15,50.19c2.35,0,4.26,2.01,4.26,4.48s-1.91,4.48-4.26,4.48-4.26-2.01-4.26-4.48,1.91-4.48,4.26-4.48m0-.5c-2.63,0-4.76,2.23-4.76,4.98s2.13,4.98,4.76,4.98,4.76-2.23,4.76-4.98-2.13-4.98-4.76-4.98h0Z"/><path vector-effect="non-scaling-stroke" class="cls-25" d="m272.15,59.86c-2.74,0-4.97-2.33-4.97-5.19s2.23-5.2,4.97-5.2,4.97,2.33,4.97,5.2-2.23,5.19-4.97,5.19Zm0-9.96c-2.51,0-4.55,2.14-4.55,4.77s2.04,4.76,4.55,4.76,4.55-2.14,4.55-4.76-2.05-4.77-4.55-4.77Z"/><path vector-effect="non-scaling-stroke" class="cls-25" d="m272.15,49.47c-2.74,0-4.97,2.33-4.97,5.2s2.23,5.19,4.97,5.19,4.97-2.33,4.97-5.19-2.23-5.2-4.97-5.2h0Zm0,9.96c-2.51,0-4.55-2.14-4.55-4.76s2.05-4.77,4.55-4.77,4.55,2.14,4.55,4.77-2.04,4.76-4.55,4.76h0Z"/><path vector-effect="non-scaling-stroke" class="cls-26" d="m209.57,116.26c-2.3,0-4.48-.71-6.31-2.05-2.36-1.73-3.87-4.33-4.26-7.3-.39-2.98.4-5.98,2.22-8.46,2.21-3.01,5.7-4.81,9.34-4.81,2.3,0,4.48.71,6.31,2.05,4.88,3.58,5.79,10.65,2.04,15.75-2.22,3.02-5.71,4.82-9.34,4.82h0Z"/><path vector-effect="non-scaling-stroke" class="cls-25" d="m210.57,94.01c2.22,0,4.32.69,6.08,1.98,4.71,3.46,5.59,10.29,1.96,15.23-2.15,2.92-5.53,4.67-9.04,4.67-2.22,0-4.32-.69-6.08-1.98-2.28-1.67-3.74-4.18-4.11-7.05-.37-2.88.39-5.79,2.15-8.19,2.14-2.92,5.52-4.66,9.03-4.66m0-.75c-3.62,0-7.26,1.73-9.64,4.96-3.89,5.29-2.94,12.57,2.11,16.29,1.95,1.44,4.24,2.13,6.53,2.13,3.63,0,7.27-1.73,9.65-4.97,3.88-5.28,2.93-12.57-2.12-16.28-1.96-1.44-4.24-2.13-6.53-2.13h0Z"/><path vector-effect="non-scaling-stroke" class="cls-27" d="m210.01,107.69c-.62,0-1.21-.19-1.7-.55-1.32-.97-1.56-2.88-.54-4.26.6-.82,1.55-1.3,2.53-1.3.62,0,1.21.19,1.7.55.63.47,1.04,1.16,1.15,1.97.1.81-.11,1.62-.6,2.29-.6.82-1.55,1.31-2.53,1.31h0Z"/><path vector-effect="non-scaling-stroke" class="cls-25" d="m210.3,101.95c.54,0,1.05.17,1.47.48,1.15.84,1.36,2.52.46,3.73-.53.72-1.36,1.15-2.22,1.15-.54,0-1.05-.17-1.48-.48-.55-.41-.91-1.01-1-1.71-.09-.71.1-1.43.53-2.02.53-.72,1.36-1.15,2.23-1.15m0-.75c-1.07,0-2.14.51-2.83,1.46-1.14,1.56-.86,3.69.63,4.78.58.42,1.25.63,1.92.63,1.06,0,2.13-.51,2.83-1.46,1.14-1.55.86-3.69-.62-4.78-.57-.42-1.25-.62-1.92-.62h0Z"/><path vector-effect="non-scaling-stroke" class="cls-5" d="m222.6,154.35l-42.44,10.55c-4.84,1.2-7.86,5.88-6.72,10.43,1.13,4.55,5.99,7.26,10.82,6.06l.97-.24-.09-.35-.97.24c-4.63,1.15-9.28-1.45-10.37-5.81-1.08-4.35,1.8-8.83,6.44-9.98l42.44-10.55c4.63-1.15,9.28,1.45,10.37,5.81,1.08,4.36-1.8,8.84-6.44,9.99l-.97.24.09.35.97-.24c4.84-1.2,7.86-5.87,6.73-10.42-1.13-4.55-5.99-7.27-10.83-6.07Z"/><path vector-effect="non-scaling-stroke" class="cls-15" d="m536.85,356.75c-4.55,25.06,12.09,49.07,37.16,53.62,25.07,4.55,49.08-12.08,53.63-37.14s-12.09-49.07-37.16-53.62c-25.07-4.55-49.08,12.08-53.63,37.14Z"/><path vector-effect="non-scaling-stroke" class="cls-15" d="m549.99,374.3c45.03,0,81.53-36.48,81.53-81.5s-36.5-81.5-81.53-81.5-81.53,36.49-81.53,81.5,36.5,81.5,81.53,81.5Z"/><path vector-effect="non-scaling-stroke" class="cls-15" d="m194.51,267.92c-12.1-5.92-26.72-.9-32.64,11.2-5.92,12.11-.91,26.72,11.19,32.64,12.1,5.92,26.72.9,32.64-11.2,5.92-12.11.91-26.72-11.19-32.64Z"/><path vector-effect="non-scaling-stroke" class="cls-3" d="m630.84,280.85h-64.22"/><path vector-effect="non-scaling-stroke" class="cls-15" d="m237.63,486.11c32.2,0,58.3-26.11,58.3-58.31,0-32.2-26.1-58.31-58.3-58.31-32.2,0-58.3,26.11-58.3,58.31,0,32.2,26.1,58.31,58.3,58.31Z"/><path vector-effect="non-scaling-stroke" class="cls-15" d="m365.4,400.08c47.12,0,85.32-38.21,85.32-85.34,0-47.13-38.2-85.34-85.32-85.34-47.12,0-85.32,38.21-85.32,85.34,0,47.13,38.2,85.34,85.32,85.34Z"/><path vector-effect="non-scaling-stroke" class="cls-24" d="m-25.33,291.85l5.56,94.21,105.59-16.74.8-84.07-111.94,6.6Z"/><path vector-effect="non-scaling-stroke" class="cls-14" d="m100.66,373.84l-112.86,22.81,67.47-87.37,48.32,10.56-2.92,54Z"/><rect class="cls-25" x="83.1" y="301.72" width="160.73" height="83.66" rx="12" ry="12" transform="translate(326.93 687.1) rotate(-180)"/><rect class="cls-13" x="97.47" y="302.57" width="130.97" height="81.79" transform="translate(325.9 686.93) rotate(-180)"/><path vector-effect="non-scaling-stroke" class="cls-11" d="m90.8,390.24s-3.07,3.99-8.09,3.69c-5.02-.31-10.02-5.22-13.66-8.91-1.82-1.85-4.37-4.9-6.47-7.49-2.37-2.91-1.39-7.27,2.03-8.87,4.67-2.19,11.76-3.01,19.52,4.89,13.72,13.95,6.66,16.69,6.66,16.69Z"/><path vector-effect="non-scaling-stroke" class="cls-11" d="m147.05,393.07c7.7-.28,12.89-5.1,11.56-11.64-1.33-6.54-5.02-11.59-13.07-10.46-8.37,1.18-9.76,9.4-9.78,14.77-.03,5.49,4.12,7.58,11.29,7.32h0Z"/><path vector-effect="non-scaling-stroke" class="cls-11" d="m155.13,384.84c-2.41.71-7.73,1.93-15.17,1.54-.67-.03-1.04.74-.58,1.22,1.23,1.3,3.83,3.05,8.72,2.63,4.94-.42,7.03-2.76,7.88-4.36.31-.57-.23-1.23-.86-1.04h0Z"/><path vector-effect="non-scaling-stroke" class="cls-11" d="m111.45,390.43s-2.59,5.67-10.78,5.76c-8.19.09-10.76-4.58-13.32-9.17-2.57-4.59-7.16-12.17-2.88-16.31,4.28-4.13,14.71-2.6,19.68,3.1,4.98,5.7,9.41,10.29,9.41,10.29l-2.1,6.31h0Z"/><path vector-effect="non-scaling-stroke" class="cls-11" d="m122.95,396.1c8.62-.6,14.23-5.63,12.5-12.11-1.74-6.48-6.07-11.37-15.03-9.91-9.33,1.52-10.57,9.8-10.39,15.17.18,5.49,4.9,7.41,12.92,6.85h0Z"/><path vector-effect="non-scaling-stroke" class="cls-11" d="m131.68,387.53c-2.67.81-8.58,2.25-16.92,2.17-.75,0-1.13.78-.61,1.25,1.43,1.25,4.41,2.89,9.87,2.27,5.52-.62,7.76-3.05,8.66-4.69.33-.59-.31-1.22-1.01-1Z"/><path vector-effect="non-scaling-stroke" class="cls-11" d="m70.82,377.69c1.77,2.86,3.09,6.64-.17,8.92h0c-.56-.55-1.09-1.08-1.6-1.6-1.82-1.85-4.37-4.9-6.47-7.49,0,0,.86-.32,2.15-1.16,2.04-1.33,4.8-.74,6.08,1.32h0Z"/><path vector-effect="non-scaling-stroke" class="cls-11" d="m87.41,380.54c2.38-.23,5.78-1,9.64-3.22,1.13-.64,2.63-.4,3.37.57,1.97,2.58,4.27,7.42-3.39,9.9-5.86,1.89-9.51-1.39-11.44-4.14-.91-1.29.07-2.94,1.82-3.11h0Z"/><path vector-effect="non-scaling-stroke" class="cls-24" d="m70.84,338.83s19.6.59,32.87-7.72c0,0,23.77,13.5,31.42,14.43,8.89,1.09,12.63-5.52,6.59-11.91-6.05-6.38-28.52-29.95-37.41-35.77-29.25-19.13-66.77-6.88-66.77-6.88l-49.86,14.82.13,83.81"/><path vector-effect="non-scaling-stroke" class="cls-3" d="m70.84,338.83s19.6.59,32.87-7.72c0,0,23.77,13.5,31.42,14.43,8.89,1.09,12.63-5.52,6.59-11.91-6.05-6.38-28.52-29.95-37.41-35.77-29.25-19.13-66.77-6.88-66.77-6.88l-49.86,14.82.13,83.81"/><path vector-effect="non-scaling-stroke" class="cls-11" d="m141.71,333.64c1.17,1.24,1.97,2.48,2.44,3.68,0,.01-.52.83-1.13,1.8-.59.94-1.77,1.34-2.82.99-3.23-1.08-9.63-3.71-9.98-7.71-.32-3.63,1.65-6.06,2.95-7.26,3.75,3.63,6.85,6.7,8.55,8.5Z"/><path vector-effect="non-scaling-stroke" class="cls-3" d="m135.11,327.27c-.37.94-1.79,4.11-4.7,5.23"/><polygon class="cls-12" points="5.29 297.26 37.54 290.99 37.54 386.61 5.29 393.55 5.29 297.26"/><path vector-effect="non-scaling-stroke" class="cls-12" d="m-32.15,307.01l37.2-9.4v96.02s-37.11,13.28-37.11,13.28l-.08-99.9Z"/><path vector-effect="non-scaling-stroke" class="cls-11" d="m205.14,343.65c6.69,0,12.1-5.41,12.1-12.09s-5.42-12.09-12.1-12.09-12.1,5.41-12.1,12.09,5.42,12.09,12.1,12.09Z"/><path vector-effect="non-scaling-stroke" class="cls-11" d="m176.77,376.87c5.3,0,9.6-4.3,9.6-9.61s-4.3-9.61-9.6-9.61-9.61,4.3-9.61,9.61,4.3,9.61,9.61,9.61Z"/><path vector-effect="non-scaling-stroke" class="cls-11" d="m116.77,359.12c3.43,0,6.22-2.79,6.22-6.23s-2.79-6.23-6.22-6.23-6.23,2.79-6.23,6.23,2.79,6.23,6.23,6.23Z"/><path vector-effect="non-scaling-stroke" class="cls-11" d="m167.05,317.72c1.34,0,2.42-1.09,2.42-2.42s-1.09-2.42-2.42-2.42-2.43,1.09-2.43,2.42,1.09,2.42,2.43,2.42Z"/><path vector-effect="non-scaling-stroke" class="cls-11" d="m210.99,376.02c1.34,0,2.42-1.09,2.42-2.42s-1.09-2.42-2.42-2.42-2.43,1.09-2.43,2.42,1.09,2.42,2.43,2.42Z"/><path vector-effect="non-scaling-stroke" class="cls-3" d="m144.74,367.06c2.12.09,4.27,0,6.37-.3,3.58-.52,5.64-2.41,8.57-4.32,2.4-1.56,5.21-2.02,8.04-2.02,8.49,0,7.47,7.5,16.98,7.5s10.3-7.5,21.21-7.5c8.96,0,10.8,7.5,18.27,7.5h3.64"/><path vector-effect="non-scaling-stroke" class="cls-3" d="m119.42,311.06c5.26,1.65,10.33,1.65,16.25-.89,7.61-2.54,12.68,5.92,15.21,12.68,1.69,2.54,5.07,4.23,8.45,4.23,5.92,0,10.14-5.07,16.06-3.38,5.07,1.69,8.45,5.07,10.99,10.14.85,3.38,3.38,6.76,8.45,7.61"/><path vector-effect="non-scaling-stroke" class="cls-3" d="m144.74,367.05c3.42-.3,6.34-5.23,7.94-7.76,2.43-3.82,3.61-8.85,6.61-12.23,2.2-2.48,5.07-3.98,8.43-3.98,8.49,0,7.47,7.5,16.98,7.5s10.3-19.02,21.21-19.02c8.96,0,10.72,20.16,18.27,23.54h3.64"/><path vector-effect="non-scaling-stroke" class="cls-7" d="m519.22,74.61c.1,1.14.68,3.27,3.38,5.41l2.14,1.69.36-.23,1.13,1.6c1.77,2.5,3.76,3.86,5.92,4.05,2.49.22,5.37-1.38,7.53-4.18l.03-.04c1.66-2.06,2.55-4.23,3.5-6.53.23-.57.47-1.12.71-1.69.97-3.27,2.33-6.82,5.59-10.61-.05-.07-.1-.14-.13-.16-7.09-3.97-20.38-2.5-25.17,1.49-2.96,2.47-4.65,5.23-4.89,8l-.1,1.2h0Z"/><path vector-effect="non-scaling-stroke" class="cls-11" d="m515.46,86.65c7.8-3.42,16.34-8.45,20.27-16.34"/><g id="Hand-3"><g id="Thumb"><path vector-effect="non-scaling-stroke" id="C4936E-2" class="cls-11" d="m525.81,102.12c-12.41-12.41-42.81-22.1-42.71-11.76.06,6.47,26.74,6.89,26.74,6.89l15.98,4.87Z"/></g><g id="Finger-2"><path vector-effect="non-scaling-stroke" id="C4936E-3" class="cls-11" d="m471,111.7c-10.05-4.58-26.08-5.4-31.48-5.54-1.17-.03-2.11-1.06-1.95-2.22.51-3.8,5.06-10.69,33.19-4.99l.24,12.76Z"/></g><g id="Finger-3"><path vector-effect="non-scaling-stroke" id="C4936E-4" class="cls-11" d="m467.93,108.97l-22.13-13.92c-1.5-.94-1.75-3-.55-4.3,2.06-2.23,6.86-3.69,13.29-.9,10.5,4.55,9.39,19.12,9.39,19.12Z"/></g><g id="Pinky"><path vector-effect="non-scaling-stroke" id="C4936E-5" class="cls-11" d="m497.73,130.17s-.02.02-.04.04c-5.92-6.65-13.26-11.99-21.26-15.9-2.78-1.36-5.69-2.58-8.03-4.61-3.26-2.83-5.08-6.93-6.79-10.88-2.05-4.72-4.1-9.45-6.15-14.17-.3-.68-.63-1.53-.2-2.23.74-1.23,2.91-.84,4.07-.63,1.46.27,2.85.88,4.08,1.71,2.06,1.4,3.66,3.37,5.07,5.43,1.8,2.64,3.31,5.47,4.78,8.31.72,1.39,1.46,2.83,2.7,3.8,2.11,1.65,5.16,1.49,7.63.48,2.47-1.01,4.58-2.73,6.86-4.13,5.43-3.32,12-4.73,18.31-3.94,5.75.72,11.44,3.28,15.67,7.27.46.43.95.97.8,1.65-.16.73-.96,1.29-1.45,1.79-1.24,1.25-2.48,2.5-3.72,3.74-2.48,2.49-4.97,4.99-7.46,7.47-4.94,4.94-9.89,9.87-14.84,14.8Z"/></g><path vector-effect="non-scaling-stroke" class="cls-11" d="m520.02,107.89s-4.31-16.77-33.06-8.25"/></g><g id="Watch"><g id="Strap"><rect id="FFFFFF" class="cls-24" x="509.1" y="102.75" width="18.25" height="39.69" transform="translate(238.48 -330.53) rotate(45)"/><path vector-effect="non-scaling-stroke" id="_000000-10" class="cls-25" d="m510.65,143.8l-13.61-13.61,28.78-28.78,13.61,13.61-28.78,28.78Zm-12.19-13.61l12.19,12.19,27.36-27.36-12.19-12.19-27.36,27.36Z"/></g><g id="Strap-2"><path vector-effect="non-scaling-stroke" id="_000000-11" class="cls-25" d="m520.25,134.2l-9.6,9.6-13.61-13.61,9.6-9.6c3.75-3.75,9.86-3.75,13.61,0s3.75,9.86,0,13.61Zm-9.6,8.18l8.89-8.89c3.36-3.36,3.36-8.83,0-12.19-3.36-3.36-8.83-3.36-12.19,0l-8.89,8.89,12.19,12.19Z"/></g><path vector-effect="non-scaling-stroke" id="_000000-12" class="cls-25" d="m516.63,127.08c-.8.8-2.09.8-2.89,0s-.8-2.09,0-2.89,2.09-.8,2.89,0,.8,2.09,0,2.89Zm-.71-.71c.4-.4.4-1.06,0-1.47s-1.06-.4-1.47,0-.4,1.06,0,1.46,1.06.4,1.47,0Z"/><path vector-effect="non-scaling-stroke" id="_000000-13" class="cls-25" d="m525.16,118.56c-.8.8-2.09.8-2.89,0s-.8-2.09,0-2.89,2.09-.8,2.89,0,.8,2.09,0,2.89Zm-.71-.71c.4-.4.4-1.06,0-1.47s-1.06-.4-1.47,0-.4,1.06,0,1.46,1.06.4,1.47,0Z"/></g><path vector-effect="non-scaling-stroke" class="cls-11" d="m564.91,199.28c.97.83,2.21,1.29,3.48,1.29h83.29c2.96,0,5.36-2.4,5.36-5.36v-44.89c0-2.96-2.4-5.36-5.36-5.36h-68.4c-1.15,0-2.27-.37-3.19-1.05l-37.24-27.58c-2.13-1.58-5.1-1.36-6.98.52l-21.79,21.79c-6.24,6.24-5.03,12.01-.05,17.11.13.13,50.87,43.53,50.87,43.53Z"/><path vector-effect="non-scaling-stroke" class="cls-6" d="m464.54,78.94c1.13-.2,3.2-.97,5.09-3.84l1.5-2.28-.26-.34,1.5-1.26c2.33-1.98,3.51-4.08,3.51-6.25,0-2.5-1.85-5.23-4.82-7.13l-.04-.02c-2.19-1.47-4.44-2.17-6.81-2.91-.59-.18-1.16-.37-1.75-.56-3.34-.68-7-1.73-11.06-4.65-.07.06-.13.11-.15.15-3.33,7.4-.71,20.52,3.68,24.94,2.72,2.73,5.62,4.17,8.4,4.17h1.2Z"/><path vector-effect="non-scaling-stroke" class="cls-6" d="m498.98,71.37c3.34,0,7.24-2.39,10.95-6.73,5.5-6.76,8.08-25.04,3.29-34.79-.07-.07-.15-.14-.22-.18-.11,0-.24.02-.36.05-4.35,3.87-9.3,5.29-14.08,6.66-5.74,1.8-10.04,3.36-13.25,7.17-3.67,4.3-5.12,8.12-4.33,11.39.77,2.81,2.95,5.31,6.29,7.25l1.67.96.19-.34,1.85,3.1c1.82,3.05,4.18,4.94,6.85,5.49h1.16s0,0,0,0Z"/><path vector-effect="non-scaling-stroke" class="cls-3" d="m506.03,42.82s-22.12,18.92-26.87,43.44c0,0-7.8-18.49-20.34-23.39"/><path vector-effect="non-scaling-stroke" class="cls-6" d="m422.99,73.25c.73-.89,1.79-2.82,1.35-6.23l-.35-2.71-.42-.09.31-1.94c.48-3.02,0-5.38-1.42-7.03-1.63-1.89-4.81-2.76-8.31-2.25h-.05c-2.62.32-4.78,1.26-7.06,2.25-.56.24-1.12.48-1.69.72-2.98,1.67-6.43,3.26-11.41,3.7-.02.09-.03.17-.02.21,2.31,7.79,12.86,16.01,19.07,16.49,3.84.29,6.98-.51,9.08-2.32l.91-.78h0Z"/><path vector-effect="non-scaling-stroke" class="cls-13" d="m434.09,67.25c-7.97-2.99-17.6-5.34-25.92-2.43"/><path vector-effect="non-scaling-stroke" class="cls-7" d="m462.12,136.08c-.72-.59-2.3-1.46-5.08-1.1l-2.21.29-.07.34-1.58-.25c-2.46-.39-4.39,0-5.73,1.16-1.54,1.33-2.25,3.92-1.84,6.78v.04c.26,2.14,1.02,3.9,1.83,5.76.2.46.39.91.58,1.38,1.36,2.43,2.65,5.24,3.01,9.31.07.01.14.02.17.01,6.35-1.88,13.06-10.48,13.46-15.55.24-3.13-.41-5.69-1.89-7.41l-.64-.74h0Z"/><path vector-effect="non-scaling-stroke" class="cls-11" d="m457.22,127.02c-2.44,6.5-4.37,14.35-2,21.14"/><path vector-effect="non-scaling-stroke" class="cls-11" d="m569.58,317.78c0,50.64-10.99,92.53-24.51,91.68-13.51-.84-24.51-41.05-24.51-91.68s10.97-91.68,24.51-91.68,24.51,41.05,24.51,91.68Z"/><g class="cls-29"><path vector-effect="non-scaling-stroke" class="cls-12" d="m438.47,310.46l-2.45,8.77c-.21.74.36,1.49,1.12,1.46,1.39-.06,3.54-1.45,5.18-8.39"/><path vector-effect="non-scaling-stroke" class="cls-12" d="m443.04,309.91l-2.45,8.77c-.21.74.36,1.49,1.12,1.46,1.39-.06,3.54-1.45,5.18-8.39"/><path vector-effect="non-scaling-stroke" class="cls-3" d="m447.62,313.93c-4.45-1.36-12.76-7.51-14.52-9-.38-.31-.96-.26-1.23.17-.89,1.37-1.35,4.87,9.15,10.96l6.6-2.14Z"/><path vector-effect="non-scaling-stroke" class="cls-12" d="m436.87,313.41c-6.2-4.48-5.75-7.15-5-8.31.27-.42.85-.49,1.23-.16,1.02.86,4.28,3.31,7.7,5.47-1.54-2.51-3.15-5.26-3.81-8.15-.17-.75-.34-1.54.18-2.18.28-.33.57-.57,1.03-.5.32.05.68.26.85.55.9,1.57,3.55,5.08,4.75,6.48,1.21,1.41,2.51,2.84,3.8,4.11,1.75,1.7,3.57,3.23,5.23,5.06,2.22,2.46,4.44,4.91,6.56,7.46,1.74,2.09,3.26,5.15,5.26,6.87-.33.39-2.69,2.64-4.81,4.67-1.84,1.76-3.51,3.33-3.51,3.33-3.16-3.22-7-5.76-11.19-7.44-2.01-.8-10.26-2.32-7.99-5.97,2.19-3.51,6.1,1.88,8.44.03,1.68-1.34.21-3.58-.95-4.7l-7.77-6.63Z"/><path vector-effect="non-scaling-stroke" class="cls-3" d="m445.72,313.18c-1.54-.72-3.3-1.74-5-2.82"/><path vector-effect="non-scaling-stroke" class="cls-27" d="m445.14,330.7c-5.34-1.15-9.48-3.58-7.99-5.97,2.19-3.51,6.1,1.88,8.44.01"/><path vector-effect="non-scaling-stroke" class="cls-3" d="m445.14,330.7c-5.34-1.15-9.48-3.58-7.99-5.97,2.19-3.51,6.1,1.88,8.44.01"/><path vector-effect="non-scaling-stroke" class="cls-12" d="m498.44,308.26l-2.13-10.54s-9.16,8.32-14.3,4.97c-3.6-2.35-3.09-7.15-2.87-12.94l-.45.2c-1.17.54-2.41-.6-2-1.81.67-1.97,1.6-3.99,2.31-5.44-.03-.26-.06-.54-.1-.8-1.21-9.11,6.82-14.48,11.14-16.24,4.32-1.76,10.36-4.55,16.01-.44,5.76,4.19,1.11,13.84,4.25,26.72.65,2.65,2.26,6.39,6.36,11.12l-18.24,5.2Z"/><path vector-effect="non-scaling-stroke" class="cls-10" d="m480.74,271.96c3.09-4.66,8.1-6.94,9.56-7.53l.64-.26c4.46-1.81,10.56-4.29,16.29-.17,3.51,2.52,3.42,6.95,3.3,12.55-.06,3.06-.13,6.53.34,10.32l.03.25-.25.03c-.56.07-1.1.11-1.62.12-11.16.15-16.58-12.39-17.28-14.13-6.39,1.21-10.87-.81-10.91-.82l-.25-.12.16-.24h0Z"/><path vector-effect="non-scaling-stroke" class="cls-3" d="m479.07,292.9c4.45-.06,5.3-3.82,5.3-3.86"/><path vector-effect="non-scaling-stroke" class="cls-11" d="m514.01,358.17l57.26,77.49,53.24-43.94-100.04-85.52c-9.09-9.14-25.23-6.06-30.08,6-1.62,4.02-1.25,8.3-1.96,12.45-.54,3.12-1.22,6.24-1.83,9.35l-2.14,12.47s-.01.05-.01.05l-25.72-24.95-11.9,24.28,35.47,33.44c10.89,6.54,24.9-.18,26.59-12.77l1.12-8.34Z"/><path vector-effect="non-scaling-stroke" class="cls-3" d="m514.01,358.16l4.55-22.26"/><circle class="cls-10" cx="513.12" cy="250.3" r="14.29"/><circle class="cls-10" cx="532.41" cy="250.57" r="11.69"/><circle class="cls-10" cx="523.99" cy="263.93" r="12.43"/><rect class="cls-11" x="498.94" y="260.74" width="13.01" height="5.04" rx="1.72" ry="1.72" transform="translate(745.86 779.96) rotate(-142.46)"/><rect class="cls-13" x="474.37" y="275.5" width="14.68" height="9.34" rx="4.43" ry="4.43" transform="translate(-4.02 7.03) rotate(-.83)"/><path vector-effect="non-scaling-stroke" class="cls-3" d="m483.36,275.48c1.63-.02,2.98,1.29,3,2.91l.05,3.43c.02,1.63-1.29,2.98-2.91,3"/><rect class="cls-13" x="489.04" y="277.64" width="8.68" height="3.7" transform="translate(-4.01 7.2) rotate(-.83)"/><path vector-effect="non-scaling-stroke" class="cls-12" d="m494.26,282.44s2.05-4.16,5.16-2.77c3.95,1.75,1.82,6.7.28,7.62"/></g><path vector-effect="non-scaling-stroke" class="cls-3" d="m568.74,342.71c-1.48,15.12-4.09,37.6-9.8,51.78-2.34,5.82-7.82,18.05-16.2,14.76-3.56-1.4-6-4.97-7.84-8.14-2.17-3.75-3.82-7.79-5.27-11.87-.75-2.11-1.43-4.2-1.93-6.38-.39-1.7-.79-3.41-1.18-5.11-.29-1.26-.58-2.52-.87-3.78"/><polygon class="cls-27" points="363.44 372.98 351.16 381.58 325.37 375.43 336.43 366.84 363.44 372.98"/><polygon class="cls-3" points="325.37 375.44 327.83 348.42 338.88 339.83 364.67 347.19 363.44 372.98 351.16 381.58 325.37 375.44"/><polyline class="cls-3" points="325.37 375.44 336.43 366.84 338.88 339.83"/><line class="cls-3" x1="363.44" y1="372.98" x2="336.43" y2="366.84"/><polygon class="cls-13" points="401.48 298.76 419.23 295.38 427.68 300.45 426.83 317.35 409.93 322.43 402.33 316.51 401.48 298.76"/><polyline class="cls-3" points="401.48 298.76 409.09 304.68 427.68 300.45"/><line class="cls-3" x1="409.93" y1="322.43" x2="409.09" y2="304.68"/><polygon class="cls-11" points="558.6 364.68 572.96 364.68 584.79 372.28 579.72 390.87 564.51 390.87 553.53 382.42 558.6 364.68"/><polyline class="cls-3" points="558.6 364.68 569.58 373.13 584.97 373.13"/><line class="cls-3" x1="564.51" y1="390.87" x2="569.58" y2="373.13"/><polygon class="cls-27" points="584.48 373.55 579.64 391.29 564.43 391.29 569.5 373.55 584.48 373.55"/><polygon class="cls-3" points="558.6 364.68 572.96 364.68 584.79 372.28 579.72 390.87 564.51 390.87 553.53 382.42 558.6 364.68"/><polyline class="cls-3" points="558.6 364.68 569.58 373.13 584.97 373.13"/><line class="cls-3" x1="564.51" y1="390.87" x2="569.58" y2="373.13"/><path vector-effect="non-scaling-stroke" class="cls-11" d="m582.21,336.37c-9.13,0-16.53-7.38-16.53-16.48,0-9.1,7.4-16.48,16.53-16.48,9.13,0,16.53,7.38,16.53,16.48,0,9.1-7.4,16.48-16.53,16.48Z"/><path vector-effect="non-scaling-stroke" class="cls-3" d="m583.08,303.43c-1.46,2.34-2.06,5.08-.52,8,.71,1.35,1.6,2.61,2.73,3.64,2.56,2.35,5.92,2.95,9.29,3.08,1.36.05,2.72.09,4.09.16"/><path vector-effect="non-scaling-stroke" class="cls-3" d="m595.68,329.43c-3.05,1.72-8.96,3.89-15.94.57-7.28-3.47-7.18-9.98-13.36-12.03-.19-.06-.38-.12-.57-.18"/><path vector-effect="non-scaling-stroke" class="cls-11" d="m328.12,323.03c17.85,0,32.32-14.43,32.32-32.23s-14.47-32.23-32.32-32.23-32.32,14.43-32.32,32.23,14.47,32.23,32.32,32.23Z"/><path vector-effect="non-scaling-stroke" class="cls-3" d="m326.41,258.61c2.85,4.57,4.03,9.93,1.02,15.65-1.39,2.63-3.13,5.1-5.34,7.12-5.01,4.59-11.59,5.77-18.16,6.03-2.65.11-5.32.18-7.99.31"/><path vector-effect="non-scaling-stroke" class="cls-3" d="m335.53,259.28c-.89,3.4-1.06,8.28.7,15.2,4.7,18.45-5.55,24.5-7.95,26.87-2.4,2.38-13.99,6.9-31.07-1.6"/><path vector-effect="non-scaling-stroke" class="cls-3" d="m301.77,309.46c5.97,3.36,17.53,7.61,31.18,1.11,14.24-6.79,14.04-19.52,26.13-23.52.37-.12.74-.24,1.11-.35"/><polygon class="cls-23" points="427.68 300.29 426.83 317.19 409.93 322.26 409.09 304.52 427.68 300.29"/><polygon class="cls-3" points="401.48 298.76 419.23 295.38 427.68 300.45 426.83 317.35 409.93 322.43 402.33 316.51 401.48 298.76"/><polyline class="cls-3" points="401.48 298.76 409.09 304.68 427.68 300.45"/><line class="cls-3" x1="409.93" y1="322.43" x2="409.09" y2="304.68"/></g></svg>