<svg width="120" height="40" viewBox="0 0 120 40" fill="none" xmlns="http://www.w3.org/2000/svg">
<path d="M110.135 0.00013H9.53468C9.16798 0.00013 8.80568 0.00013 8.43995 0.00213C8.1338 0.00413 7.83009 0.00994 7.521 0.01483C6.84951 0.0227318 6.17961 0.0818063 5.5171 0.19154C4.85552 0.303663 4.21467 0.515046 3.61622 0.81854C3.0185 1.1246 2.47235 1.5223 1.99757 1.9972C1.5203 2.47077 1.12246 3.01815 0.81935 3.61829C0.5154 4.21724 0.304641 4.85907 0.19435 5.52161C0.0830109 6.18332 0.0230984 6.85265 0.01515 7.52361C0.00587 7.83021 0.00489 8.13783 0 8.44447V31.5587C0.00489 31.8692 0.00587 32.17 0.01515 32.4806C0.0231008 33.1516 0.0830134 33.8209 0.19435 34.4825C0.304336 35.1455 0.515108 35.7877 0.81935 36.3868C1.12233 36.985 1.52022 37.5302 1.99757 38.0011C2.47054 38.4781 3.01705 38.8761 3.61622 39.1798C4.21467 39.4841 4.85545 39.6968 5.5171 39.8106C6.17972 39.9195 6.84956 39.9786 7.521 39.9874C7.83009 39.9942 8.1338 39.9981 8.43995 39.9981C8.80567 40.0001 9.168 40.0001 9.53468 40.0001H110.135C110.494 40.0001 110.859 40.0001 111.219 39.9981C111.523 39.9981 111.836 39.9942 112.141 39.9874C112.811 39.9791 113.479 39.92 114.141 39.8106C114.804 39.696 115.448 39.4834 116.049 39.1798C116.647 38.8759 117.193 38.478 117.666 38.0011C118.142 37.5284 118.541 36.9836 118.848 36.3868C119.15 35.7872 119.358 35.1451 119.467 34.4825C119.578 33.8208 119.64 33.1516 119.652 32.4806C119.656 32.17 119.656 31.8692 119.656 31.5587C119.664 31.1954 119.664 30.8341 119.664 30.4649V9.53626C119.664 9.17005 119.664 8.80677 119.656 8.44447C119.656 8.13783 119.656 7.83021 119.652 7.52357C119.64 6.85255 119.578 6.18337 119.467 5.52157C119.358 4.85941 119.149 4.21763 118.848 3.61825C118.23 2.41533 117.252 1.43616 116.049 0.81845C115.448 0.515697 114.804 0.30437 114.141 0.19145C113.48 0.0812328 112.811 0.0221378 112.141 0.01469C111.836 0.00981 111.523 0.00395 111.219 0.002C110.859 0 110.494 0.00013 110.135 0.00013Z" fill="#A6A6A6"/>
<path d="M8.44291 39.125C8.13823 39.125 7.84091 39.1211 7.53862 39.1143C6.91241 39.1061 6.28765 39.0516 5.66948 38.9512C5.09307 38.8519 4.53469 38.6673 4.01274 38.4033C3.49559 38.1415 3.0239 37.7983 2.61574 37.3867C2.20168 36.98 1.85696 36.5082 1.59523 35.9902C1.33062 35.4688 1.1475 34.9099 1.05223 34.333C0.949358 33.7131 0.893698 33.0863 0.885734 32.458C0.879394 32.2471 0.871094 31.5449 0.871094 31.5449V8.44434C0.871094 8.44434 0.879934 7.75293 0.885784 7.5498C0.89341 6.92248 0.948746 6.29665 1.05131 5.67773C1.14675 5.09925 1.33002 4.53875 1.59477 4.01563C1.85554 3.49794 2.19835 3.02586 2.60991 2.61768C3.02102 2.20562 3.49422 1.8606 4.01225 1.59521C4.533 1.33209 5.09033 1.14873 5.66557 1.05127C6.28577 0.949836 6.91269 0.894996 7.54108 0.88721L8.4434 0.875H111.212L112.125 0.8877C112.748 0.895099 113.369 0.94945 113.983 1.05029C114.565 1.14898 115.128 1.33362 115.654 1.59814C116.692 2.13299 117.537 2.97916 118.069 4.01807C118.33 4.53758 118.51 5.09351 118.605 5.66699C118.708 6.29099 118.766 6.92174 118.778 7.5542C118.781 7.8374 118.781 8.1416 118.781 8.44434C118.789 8.81934 118.789 9.17627 118.789 9.53613V30.4648C118.789 30.8281 118.789 31.1826 118.781 31.54C118.781 31.8652 118.781 32.1631 118.777 32.4697C118.766 33.0909 118.709 33.7104 118.606 34.3232C118.513 34.9043 118.331 35.4675 118.066 35.9932C117.803 36.5056 117.46 36.9733 117.051 37.3789C116.642 37.7927 116.17 38.1379 115.651 38.4014C115.126 38.6674 114.564 38.8527 113.983 38.9512C113.365 39.0522 112.741 39.1067 112.114 39.1143C111.821 39.1211 111.515 39.125 111.217 39.125L110.133 39.127L8.44291 39.125Z" fill="black"/>
<path d="M24.77 20.2964C24.7807 19.4618 25.0024 18.6434 25.4145 17.9174C25.8265 17.1915 26.4154 16.5815 27.1265 16.1444C26.6748 15.4992 26.0788 14.9683 25.386 14.5937C24.6932 14.2192 23.9226 14.0113 23.1354 13.9867C21.4561 13.8104 19.8282 14.9915 18.9725 14.9915C18.1002 14.9915 16.7827 14.0042 15.364 14.0334C14.4463 14.063 13.5519 14.3299 12.7681 14.8079C11.9842 15.286 11.3375 15.959 10.891 16.7612C8.95705 20.1097 10.3996 25.0307 12.2522 27.7373C13.1791 29.0627 14.2624 30.5431 15.6799 30.4906C17.0669 30.4331 17.585 29.6061 19.2593 29.6061C20.918 29.6061 21.4041 30.4906 22.8503 30.4572C24.3387 30.4331 25.2764 29.126 26.1708 27.7881C26.8368 26.8437 27.3492 25.8 27.6892 24.6956C26.8245 24.3299 26.0866 23.7177 25.5675 22.9354C25.0483 22.1531 24.771 21.2353 24.77 20.2964Z" fill="white"/>
<path d="M22.0395 12.2094C22.8511 11.2352 23.2509 9.98298 23.154 8.71875C21.9142 8.84897 20.769 9.44153 19.9465 10.3784C19.5443 10.836 19.2363 11.3685 19.0401 11.9452C18.8438 12.522 18.7632 13.1318 18.8028 13.7397C19.4229 13.7461 20.0364 13.6117 20.5971 13.3466C21.1577 13.0815 21.6509 12.6927 22.0395 12.2094Z" fill="white"/>
<path d="M42.3047 27.1397H37.5713L36.4346 30.4961H34.4297L38.9131 18.0781H40.9961L45.4795 30.4961H43.4404L42.3047 27.1397ZM38.0615 25.5908H41.8135L39.9639 20.1436H39.9121L38.0615 25.5908Z" fill="white"/>
<path d="M55.1612 25.9675C55.1612 28.781 53.6553 30.5886 51.3828 30.5886C50.8072 30.6187 50.2347 30.4861 49.7309 30.206C49.2271 29.9258 48.8124 29.5095 48.5342 29.0046H48.4912V33.489H46.6328V21.4401H48.4317V22.946H48.4659C48.7568 22.4435 49.1785 22.0294 49.6862 21.7475C50.1938 21.4657 50.7683 21.3267 51.3487 21.3454C53.6465 21.3454 55.1612 23.1618 55.1612 25.9675ZM53.251 25.9675C53.251 24.1345 52.3037 22.9294 50.8584 22.9294C49.4385 22.9294 48.4834 24.1599 48.4834 25.9675C48.4834 27.7917 49.4385 29.0134 50.8584 29.0134C52.3037 29.0134 53.251 27.8171 53.251 25.9675Z" fill="white"/>
<path d="M65.126 25.9675C65.126 28.781 63.6201 30.5886 61.3477 30.5886C60.772 30.6187 60.1995 30.4861 59.6957 30.206C59.1919 29.9258 58.7772 29.5095 58.4991 29.0046H58.4561V33.489H56.5977V21.4401H58.3965V22.946H58.4307C58.7216 22.4435 59.1433 22.0293 59.651 21.7475C60.1586 21.4657 60.7332 21.3267 61.3135 21.3454C63.6114 21.3454 65.126 23.1618 65.126 25.9675ZM63.2158 25.9675C63.2158 24.1345 62.2686 22.9294 60.8233 22.9294C59.4033 22.9294 58.4483 24.1599 58.4483 25.9675C58.4483 27.7917 59.4033 29.0134 60.8233 29.0134C62.2686 29.0134 63.2158 27.8171 63.2158 25.9675Z" fill="white"/>
<path d="M71.711 27.0323C71.8487 28.2637 73.045 29.0723 74.6797 29.0723C76.2461 29.0723 77.3731 28.2637 77.3731 27.1533C77.3731 26.1895 76.6934 25.6123 75.084 25.2168L73.4746 24.8291C71.1944 24.2783 70.1358 23.2119 70.1358 21.4814C70.1358 19.3389 72.003 17.8672 74.6543 17.8672C77.2783 17.8672 79.0772 19.3389 79.1377 21.4814H77.2617C77.1494 20.2422 76.125 19.4941 74.6279 19.4941C73.1309 19.4941 72.1065 20.251 72.1065 21.3525C72.1065 22.2305 72.7608 22.7471 74.3613 23.1425L75.7295 23.4785C78.2773 24.081 79.3359 25.1045 79.3359 26.9209C79.3359 29.2441 77.4854 30.6992 74.542 30.6992C71.7881 30.6992 69.9287 29.2783 69.8086 27.0322L71.711 27.0323Z" fill="white"/>
<path d="M83.3476 19.2969V21.4395H85.0693V22.9111H83.3476V27.9023C83.3476 28.6777 83.6924 29.0391 84.4492 29.0391C84.6536 29.0355 84.8577 29.0211 85.0605 28.9961V30.459C84.7203 30.5225 84.3744 30.5513 84.0283 30.5449C82.1953 30.5449 81.4805 29.8564 81.4805 28.1006V22.9111H80.1641V21.4395H81.4804V19.2969H83.3476Z" fill="white"/>
<path d="M86.0664 25.9668C86.0664 23.1182 87.7441 21.3281 90.3604 21.3281C92.9854 21.3281 94.6553 23.1181 94.6553 25.9668C94.6553 28.8232 92.9941 30.6055 90.3604 30.6055C87.7275 30.6055 86.0664 28.8232 86.0664 25.9668ZM92.7617 25.9668C92.7617 24.0127 91.8662 22.8594 90.3603 22.8594C88.8545 22.8594 87.96 24.0215 87.96 25.9668C87.96 27.9287 88.8545 29.0732 90.3603 29.0732C91.8662 29.0732 92.7617 27.9287 92.7617 25.9668Z" fill="white"/>
<path d="M96.1875 21.4401H97.96V22.9811H98.003C98.1229 22.4998 98.4048 22.0744 98.8014 21.7766C99.198 21.4787 99.6851 21.3264 100.181 21.3453C100.395 21.3446 100.608 21.3678 100.817 21.4147V23.1529C100.547 23.0703 100.265 23.0324 99.9824 23.0406C99.7124 23.0297 99.4433 23.0773 99.1935 23.1802C98.9436 23.2831 98.719 23.4388 98.535 23.6367C98.351 23.8346 98.2121 24.0699 98.1276 24.3266C98.0432 24.5833 98.0153 24.8552 98.0459 25.1236V30.4938H96.1875L96.1875 21.4401Z" fill="white"/>
<path d="M109.386 27.834C109.136 29.4775 107.535 30.6055 105.487 30.6055C102.854 30.6055 101.219 28.8408 101.219 26.0098C101.219 23.1699 102.862 21.3281 105.409 21.3281C107.914 21.3281 109.489 23.0488 109.489 25.7939V26.4307H103.095V26.543C103.065 26.8762 103.107 27.2118 103.217 27.5277C103.327 27.8435 103.503 28.1323 103.734 28.3748C103.964 28.6174 104.243 28.8082 104.553 28.9345C104.863 29.0608 105.196 29.1197 105.53 29.1074C105.969 29.1486 106.41 29.0469 106.787 28.8174C107.164 28.588 107.456 28.2431 107.621 27.834L109.386 27.834ZM103.104 25.1318H107.63C107.647 24.8322 107.601 24.5324 107.496 24.2512C107.392 23.97 107.23 23.7135 107.022 23.4977C106.813 23.2819 106.562 23.1116 106.285 22.9974C106.007 22.8832 105.709 22.8275 105.409 22.834C105.107 22.8322 104.807 22.8903 104.527 23.0051C104.246 23.1198 103.992 23.2889 103.778 23.5025C103.563 23.7161 103.393 23.9701 103.278 24.2498C103.162 24.5294 103.103 24.8292 103.104 25.1318Z" fill="white"/>
<path d="M37.8271 8.73333C38.2168 8.70537 38.6077 8.76423 38.9718 8.90567C39.3359 9.0471 39.6641 9.26758 39.9327 9.55121C40.2013 9.83483 40.4036 10.1745 40.525 10.5458C40.6464 10.9171 40.6839 11.3107 40.6348 11.6982C40.6348 13.6044 39.6045 14.7002 37.8271 14.7002H35.6719V8.73333H37.8271ZM36.5986 13.8563H37.7236C38.002 13.873 38.2806 13.8273 38.5392 13.7227C38.7977 13.6181 39.0297 13.4571 39.2182 13.2516C39.4067 13.046 39.5469 12.801 39.6288 12.5344C39.7107 12.2678 39.7321 11.9863 39.6914 11.7103C39.7291 11.4355 39.7056 11.1557 39.6224 10.8911C39.5393 10.6264 39.3987 10.3834 39.2106 10.1795C39.0226 9.97554 38.7917 9.81573 38.5346 9.71149C38.2776 9.60726 38.0006 9.56117 37.7236 9.57654H36.5986V13.8563Z" fill="white"/>
<path d="M41.6819 12.4458C41.6536 12.1498 41.6875 11.8513 41.7813 11.5692C41.8751 11.2871 42.0269 11.0278 42.2268 10.8078C42.4268 10.5878 42.6705 10.4121 42.9423 10.2918C43.2142 10.1715 43.5082 10.1094 43.8055 10.1094C44.1027 10.1094 44.3967 10.1715 44.6686 10.2918C44.9404 10.4121 45.1841 10.5878 45.3841 10.8078C45.584 11.0278 45.7358 11.2871 45.8296 11.5692C45.9235 11.8513 45.9573 12.1498 45.929 12.4458C45.9578 12.742 45.9244 13.041 45.8308 13.3235C45.7372 13.606 45.5855 13.8658 45.3855 14.0862C45.1856 14.3067 44.9417 14.4828 44.6695 14.6033C44.3974 14.7239 44.1031 14.7861 43.8055 14.7861C43.5078 14.7861 43.2135 14.7239 42.9414 14.6033C42.6693 14.4828 42.4254 14.3067 42.2254 14.0862C42.0254 13.8658 41.8737 13.606 41.7801 13.3235C41.6865 13.041 41.6531 12.742 41.6819 12.4458ZM45.0149 12.4458C45.0149 11.4697 44.5764 10.8989 43.8069 10.8989C43.0345 10.8989 42.5999 11.4697 42.5999 12.4458C42.5999 13.4297 43.0345 13.9961 43.8069 13.9961C44.5765 13.996 45.0149 13.4257 45.0149 12.4458Z" fill="white"/>
<path d="M51.5742 14.6982H50.6523L49.7217 11.3818H49.6514L48.7246 14.6982H47.8115L46.5703 10.1953H47.4717L48.2783 13.6313H48.3447L49.2705 10.1953H50.1231L51.0488 13.6313H51.1191L51.9219 10.1953H52.8105L51.5742 14.6982Z" fill="white"/>
<path d="M53.8555 10.1929H54.7109V10.9082H54.7773C54.89 10.6513 55.08 10.436 55.3209 10.2921C55.5617 10.1483 55.8415 10.0833 56.1211 10.106C56.3402 10.0895 56.5602 10.1226 56.7648 10.2027C56.9694 10.2827 57.1533 10.4079 57.303 10.5687C57.4527 10.7295 57.5643 10.922 57.6295 11.1318C57.6947 11.3416 57.7118 11.5634 57.6797 11.7808V14.6958H56.791V12.004C56.791 11.2803 56.4766 10.9205 55.8193 10.9205C55.6706 10.9135 55.5221 10.9388 55.384 10.9947C55.246 11.0505 55.1216 11.1355 55.0195 11.2439C54.9174 11.3523 54.8399 11.4815 54.7924 11.6226C54.7448 11.7637 54.7284 11.9135 54.7441 12.0616V14.6958H53.8555L53.8555 10.1929Z" fill="white"/>
<path d="M59.0938 8.4375H59.9824V14.6982H59.0938V8.4375Z" fill="white"/>
<path d="M61.2171 12.4458C61.1888 12.1499 61.2226 11.8513 61.3165 11.5692C61.4104 11.2872 61.5621 11.0278 61.7621 10.8078C61.9621 10.5878 62.2058 10.4121 62.4777 10.2918C62.7495 10.1715 63.0435 10.1094 63.3408 10.1094C63.6381 10.1094 63.9321 10.1715 64.204 10.2918C64.4759 10.4121 64.7196 10.5878 64.9196 10.8078C65.1195 11.0278 65.2713 11.2872 65.3652 11.5692C65.459 11.8513 65.4929 12.1499 65.4646 12.4458C65.4934 12.7421 65.4599 13.0411 65.3663 13.3236C65.2727 13.6061 65.121 13.8659 64.921 14.0863C64.721 14.3067 64.4771 14.4829 64.2049 14.6034C63.9328 14.7239 63.6385 14.7862 63.3408 14.7862C63.0432 14.7862 62.7489 14.7239 62.4767 14.6034C62.2046 14.4829 61.9607 14.3067 61.7607 14.0863C61.5607 13.8659 61.409 13.6061 61.3153 13.3236C61.2217 13.0411 61.1882 12.7421 61.2171 12.4458ZM64.5501 12.4458C64.5501 11.4698 64.1116 10.899 63.3421 10.899C62.5696 10.899 62.1351 11.4698 62.1351 12.4458C62.1351 13.4297 62.5696 13.9961 63.3421 13.9961C64.1116 13.9961 64.5501 13.4258 64.5501 12.4458Z" fill="white"/>
<path d="M66.4023 13.4258C66.4023 12.6152 67.0059 12.1479 68.0771 12.0815L69.2969 12.0112V11.6226C69.2969 11.147 68.9824 10.8784 68.375 10.8784C67.8789 10.8784 67.5352 11.0605 67.4365 11.3789H66.5762C66.667 10.6055 67.3945 10.1094 68.416 10.1094C69.5449 10.1094 70.1816 10.6714 70.1816 11.6226V14.6992H69.3262V14.0664H69.2559C69.1131 14.2934 68.9127 14.4784 68.6751 14.6027C68.4375 14.7269 68.1712 14.7858 67.9033 14.7734C67.7143 14.7931 67.5232 14.7729 67.3425 14.7142C67.1617 14.6555 66.9953 14.5596 66.8538 14.4326C66.7124 14.3056 66.5992 14.1504 66.5214 13.977C66.4437 13.8036 66.4031 13.6158 66.4023 13.4258ZM69.2969 13.041V12.6645L68.1973 12.7349C67.5771 12.7764 67.2959 12.9873 67.2959 13.3843C67.2959 13.7895 67.6474 14.0254 68.1309 14.0254C68.2725 14.0397 68.4156 14.0254 68.5516 13.9833C68.6876 13.9412 68.8138 13.8722 68.9226 13.7804C69.0313 13.6885 69.1205 13.5757 69.1849 13.4487C69.2492 13.3217 69.2873 13.183 69.2969 13.041Z" fill="white"/>
<path d="M71.3477 12.4448C71.3477 11.022 72.0791 10.1206 73.2168 10.1206C73.4982 10.1077 73.7775 10.1751 74.022 10.315C74.2666 10.4548 74.4662 10.6615 74.5977 10.9106H74.6641V8.4375H75.5527V14.6982H74.7012V13.9868H74.6309C74.4893 14.2343 74.2826 14.4383 74.0334 14.5768C73.7841 14.7153 73.5017 14.783 73.2168 14.7724C72.0713 14.7725 71.3477 13.8711 71.3477 12.4448ZM72.2657 12.4448C72.2657 13.3999 72.7159 13.9746 73.4688 13.9746C74.2178 13.9746 74.6807 13.3916 74.6807 12.4487C74.6807 11.5103 74.2129 10.919 73.4688 10.919C72.7207 10.919 72.2657 11.4976 72.2657 12.4448Z" fill="white"/>
<path d="M79.2327 12.4458C79.2044 12.1498 79.2382 11.8513 79.3321 11.5692C79.4259 11.2871 79.5777 11.0278 79.7776 10.8078C79.9776 10.5878 80.2213 10.4121 80.4931 10.2918C80.765 10.1715 81.059 10.1094 81.3562 10.1094C81.6535 10.1094 81.9475 10.1715 82.2193 10.2918C82.4912 10.4121 82.7349 10.5878 82.9348 10.8078C83.1348 11.0278 83.2865 11.2871 83.3804 11.5692C83.4742 11.8513 83.5081 12.1498 83.4798 12.4458C83.5086 12.742 83.4752 13.041 83.3816 13.3235C83.288 13.606 83.1363 13.8658 82.9363 14.0862C82.7363 14.3067 82.4924 14.4828 82.2203 14.6033C81.9482 14.7239 81.6539 14.7861 81.3562 14.7861C81.0586 14.7861 80.7643 14.7239 80.4922 14.6033C80.22 14.4828 79.9761 14.3067 79.7761 14.0862C79.5762 13.8658 79.4245 13.606 79.3309 13.3235C79.2373 13.041 79.2039 12.742 79.2327 12.4458ZM82.5657 12.4458C82.5657 11.4697 82.1272 10.8989 81.3577 10.8989C80.5852 10.8989 80.1507 11.4697 80.1507 12.4458C80.1507 13.4297 80.5853 13.9961 81.3577 13.9961C82.1272 13.996 82.5657 13.4257 82.5657 12.4458Z" fill="white"/>
<path d="M84.6719 10.1929H85.5273V10.9082H85.5938C85.7064 10.6513 85.8964 10.436 86.1373 10.2921C86.3782 10.1483 86.6579 10.0833 86.9375 10.106C87.1566 10.0895 87.3766 10.1226 87.5812 10.2027C87.7858 10.2827 87.9698 10.4079 88.1194 10.5687C88.2691 10.7295 88.3807 10.922 88.4459 11.1318C88.5111 11.3416 88.5283 11.5634 88.4961 11.7808V14.6958H87.6074V12.004C87.6074 11.2803 87.293 10.9205 86.6357 10.9205C86.487 10.9135 86.3385 10.9388 86.2004 10.9947C86.0624 11.0505 85.938 11.1355 85.8359 11.2439C85.7338 11.3523 85.6563 11.4815 85.6088 11.6226C85.5612 11.7637 85.5448 11.9135 85.5605 12.0616V14.6958H84.6719V10.1929Z" fill="white"/>
<path d="M93.5146 9.07812V10.2197H94.4902V10.9683H93.5146V13.2837C93.5146 13.7554 93.709 13.9619 94.1514 13.9619C94.2646 13.9616 94.3778 13.9547 94.4902 13.9414V14.6816C94.3307 14.7102 94.169 14.7254 94.0068 14.727C93.0186 14.727 92.625 14.3794 92.625 13.5112V10.9682H91.9102V10.2197H92.625V9.07812H93.5146Z" fill="white"/>
<path d="M95.707 8.4375H96.5879V10.919H96.6582C96.7763 10.6596 96.9716 10.443 97.2172 10.2987C97.4629 10.1543 97.7472 10.0893 98.0312 10.1123C98.2492 10.1004 98.467 10.1368 98.6693 10.2189C98.8716 10.3009 99.0533 10.4266 99.2014 10.5869C99.3495 10.7473 99.4604 10.9383 99.5262 11.1465C99.592 11.3546 99.611 11.5747 99.582 11.791V14.6982H98.6924V12.0103C98.6924 11.291 98.3574 10.9268 97.7295 10.9268C97.5768 10.9142 97.4232 10.9352 97.2794 10.9883C97.1356 11.0413 97.0052 11.1252 96.8972 11.2339C96.7892 11.3426 96.7062 11.4737 96.6542 11.6178C96.6021 11.7619 96.5822 11.9157 96.5957 12.0683V14.6982H95.7071L95.707 8.4375Z" fill="white"/>
<path d="M104.761 13.4835C104.641 13.895 104.379 14.251 104.022 14.4891C103.666 14.7273 103.237 14.8324 102.81 14.7862C102.514 14.794 102.219 14.7372 101.946 14.6197C101.674 14.5022 101.43 14.3267 101.232 14.1056C101.034 13.8845 100.887 13.6229 100.8 13.3391C100.713 13.0553 100.69 12.756 100.73 12.462C100.691 12.1671 100.715 11.8672 100.801 11.5825C100.888 11.2978 101.035 11.0351 101.231 10.812C101.428 10.5889 101.671 10.4107 101.943 10.2895C102.214 10.1683 102.509 10.1069 102.806 10.1095C104.059 10.1095 104.815 10.9655 104.815 12.3795V12.6895H101.635V12.7393C101.621 12.9046 101.642 13.0709 101.696 13.2277C101.751 13.3844 101.837 13.5281 101.95 13.6496C102.063 13.771 102.2 13.8676 102.352 13.933C102.504 13.9984 102.669 14.0312 102.835 14.0293C103.047 14.0549 103.263 14.0166 103.453 13.9194C103.644 13.8222 103.802 13.6704 103.906 13.4834L104.761 13.4835ZM101.635 12.0323H103.91C103.921 11.8812 103.9 11.7294 103.85 11.5867C103.799 11.4439 103.718 11.3135 103.614 11.2036C103.51 11.0937 103.383 11.0069 103.243 10.9488C103.103 10.8906 102.953 10.8623 102.801 10.8658C102.648 10.8639 102.495 10.8927 102.353 10.9507C102.21 11.0086 102.081 11.0945 101.972 11.2032C101.864 11.3119 101.778 11.4413 101.72 11.5837C101.662 11.7261 101.633 11.8786 101.635 12.0323Z" fill="white"/>
</svg>